<?xml version="1.0" encoding="UTF-8" standalone="no"?>
<svg
   xmlns:dc="http://purl.org/dc/elements/1.1/"
   xmlns:cc="http://creativecommons.org/ns#"
   xmlns:rdf="http://www.w3.org/1999/02/22-rdf-syntax-ns#"
   xmlns:svg="http://www.w3.org/2000/svg"
   xmlns="http://www.w3.org/2000/svg"
   id="svg8"
   version="1.1"
   viewBox="0 0 220 220"
   height="22cm"
   width="22cm">
  <defs
     id="defs2" />
  <metadata
     id="metadata5">
    <rdf:RDF>
      <cc:Work
         rdf:about="">
        <dc:format>image/svg+xml</dc:format>
        <dc:type
           rdf:resource="http://purl.org/dc/dcmitype/StillImage" />
        <dc:title></dc:title>
      </cc:Work>
    </rdf:RDF>
  </metadata>
  <g
     transform="translate(0,-77.000001)"
     id="layer1">
    <path
       style="fill:#aec7e8;fill-opacity:1;stroke:none;stroke-width:0.05057684;stroke-miterlimit:4;stroke-dasharray:none;stroke-opacity:1"
       id="use4508"
       d="M 30.000001,186.99999 A 10.115368,10.115368 0 0 1 20.4787,197.16782 10.115368,10.115368 0 0 1 9.8312735,188.18605 10.115368,10.115368 0 0 1 18.249408,177.08762 10.115368,10.115368 0 0 1 29.769027,184.9195" />
    <path
       d="M 30.000001,267 A 10.115368,10.115368 0 0 1 20.4787,277.16784 10.115368,10.115368 0 0 1 9.8312735,268.18606 10.115368,10.115368 0 0 1 18.249408,257.08764 10.115368,10.115368 0 0 1 29.769027,264.91952"
       id="path4512"
       style="fill:#ff7f0e;fill-opacity:1;stroke:none;stroke-width:0.05057684;stroke-miterlimit:4;stroke-dasharray:none;stroke-opacity:1" />
    <path
       style="fill:#2ca02c;fill-opacity:1;stroke:none;stroke-width:0.05057563;stroke-miterlimit:4;stroke-dasharray:none;stroke-opacity:1"
       id="path4514"
       d="m 30,216.99999 a 10.115125,10.115125 0 0 1 -9.521072,10.16759 10.115125,10.115125 0 0 1 -10.6471705,-8.98156 10.115125,10.115125 0 0 1 8.4179325,-11.09816 10.115125,10.115125 0 0 1 11.519341,7.8317" />
    <path
       style="fill:#1f77b4;fill-opacity:1;stroke:none;stroke-width:0.05057684;stroke-miterlimit:4;stroke-dasharray:none;stroke-opacity:1"
       id="use4516"
       d="m 89.999999,246.99999 a 10.115368,10.115368 0 0 1 -9.521301,10.16783 10.115368,10.115368 0 0 1 -10.647426,-8.98177 10.115368,10.115368 0 0 1 8.418134,-11.09843 10.115368,10.115368 0 0 1 11.519619,7.83188" />
    <path
       d="m 150,256.99997 a 10.115368,10.115368 0 0 1 -9.5213,10.16784 10.115368,10.115368 0 0 1 -10.64743,-8.98178 10.115368,10.115368 0 0 1 8.41814,-11.09842 10.115368,10.115368 0 0 1 11.51961,7.83188"
       id="use4518"
       style="fill:#1f77b4;fill-opacity:1;stroke:none;stroke-width:0.05057684;stroke-miterlimit:4;stroke-dasharray:none;stroke-opacity:1" />
    <path
       d="m 90.068511,197.02216 a 10.115368,10.115368 0 0 1 -9.521301,10.16783 10.115368,10.115368 0 0 1 -10.647426,-8.98177 10.115368,10.115368 0 0 1 8.418134,-11.09843 10.115368,10.115368 0 0 1 11.519619,7.83189"
       id="use4520"
       style="fill:#aec7e8;fill-opacity:1;stroke:none;stroke-width:0.05057684;stroke-miterlimit:4;stroke-dasharray:none;stroke-opacity:1" />
    <path
       style="fill:#ff7f0e;fill-opacity:1;stroke:none;stroke-width:0.05057684;stroke-miterlimit:4;stroke-dasharray:none;stroke-opacity:1"
       id="use4522"
       d="m 89.999999,267 a 10.115368,10.115368 0 0 1 -9.521301,10.16784 10.115368,10.115368 0 0 1 -10.647426,-8.98178 10.115368,10.115368 0 0 1 8.418134,-11.09842 10.115368,10.115368 0 0 1 11.519619,7.83188" />
    <path
       d="m 90,126.99999 a 10.115125,10.115125 0 0 1 -9.521072,10.16759 10.115125,10.115125 0 0 1 -10.647171,-8.98156 10.115125,10.115125 0 0 1 8.417933,-11.09816 10.115125,10.115125 0 0 1 11.519341,7.8317"
       id="use4528"
       style="fill:#2ca02c;fill-opacity:1;stroke:none;stroke-width:0.05057563;stroke-miterlimit:4;stroke-dasharray:none;stroke-opacity:1" />
    <path
       style="fill:#2ca02c;fill-opacity:1;stroke:none;stroke-width:0.05057563;stroke-miterlimit:4;stroke-dasharray:none;stroke-opacity:1"
       id="use4530"
       d="m 150,166.99999 a 10.115125,10.115125 0 0 1 -9.52107,10.16759 10.115125,10.115125 0 0 1 -10.64717,-8.98156 10.115125,10.115125 0 0 1 8.41793,-11.09816 10.115125,10.115125 0 0 1 11.51934,7.8317" />
    <path
       d="m 210,96.99999 a 10.115125,10.115125 0 0 1 -9.52107,10.16759 10.115125,10.115125 0 0 1 -10.64717,-8.981562 10.115125,10.115125 0 0 1 8.41793,-11.098158 10.115125,10.115125 0 0 1 11.51934,7.831697"
       id="use4551"
       style="fill:#2ca02c;fill-opacity:1;stroke:none;stroke-width:0.05057563;stroke-miterlimit:4;stroke-dasharray:none;stroke-opacity:1" />
    <path
       id="path4559"
       d="m 29.862147,188.73456 50.09124,8.35751"
       style="display:inline;fill:none;fill-rule:evenodd;stroke:#aec7e8;stroke-width:5;stroke-linecap:square;stroke-linejoin:miter;stroke-miterlimit:4;stroke-dasharray:none;stroke-opacity:1" />
    <path
       id="path4561"
       d="M 139.88488,217.0699 79.953387,197.09207"
       style="fill:none;fill-rule:evenodd;stroke:#aec7e8;stroke-width:5;stroke-linecap:square;stroke-linejoin:miter;stroke-miterlimit:4;stroke-dasharray:none;stroke-opacity:1" />
    <path
       id="path4563"
       d="m 199.88488,277.0699 -60,-60"
       style="fill:none;fill-rule:evenodd;stroke:#aec7e8;stroke-width:5;stroke-linecap:square;stroke-linejoin:miter;stroke-miterlimit:4;stroke-dasharray:none;stroke-opacity:1" />
    <path
       id="path4565"
       d="m 199.88487,227.06991 -60,29.99999"
       style="fill:none;fill-rule:evenodd;stroke:#1f77b4;stroke-width:5;stroke-linecap:square;stroke-linejoin:miter;stroke-miterlimit:4;stroke-dasharray:none;stroke-opacity:1" />
    <path
       id="path4567"
       d="m 79.884873,247.0699 59.999997,10"
       style="fill:none;fill-rule:evenodd;stroke:#1f77b4;stroke-width:5;stroke-linecap:square;stroke-linejoin:miter;stroke-miterlimit:4;stroke-dasharray:none;stroke-opacity:1" />
    <path
       id="path4569"
       d="M 20,277 79.884873,247.0699"
       style="fill:none;fill-rule:evenodd;stroke:#1f77b4;stroke-width:5;stroke-linecap:square;stroke-linejoin:miter;stroke-miterlimit:4;stroke-dasharray:none;stroke-opacity:1" />
    <path
       id="path4571"
       d="M 25.495907,208.65371 79.885117,127.0699"
       style="fill:none;fill-rule:evenodd;stroke:#2ca02c;stroke-width:5;stroke-linecap:square;stroke-linejoin:miter;stroke-miterlimit:4;stroke-dasharray:none;stroke-opacity:1" />
    <path
       id="path4573"
       d="m 139.88512,167.0699 -60.000003,-40"
       style="fill:none;fill-rule:evenodd;stroke:#2ca02c;stroke-width:5;stroke-linecap:square;stroke-linejoin:miter;stroke-miterlimit:4;stroke-dasharray:none;stroke-opacity:1" />
    <path
       id="path4575"
       d="m 199.88512,97.069901 -60,69.999999"
       style="fill:none;fill-rule:evenodd;stroke:#2ca02c;stroke-width:5;stroke-linecap:square;stroke-linejoin:miter;stroke-miterlimit:4;stroke-dasharray:none;stroke-opacity:1" />
    <path
       id="path4577"
       d="M 199.88487,187.06991 140,246.99999"
       style="fill:none;fill-rule:evenodd;stroke:#ff7f0e;stroke-width:5;stroke-linecap:square;stroke-linejoin:miter;stroke-miterlimit:4;stroke-dasharray:none;stroke-opacity:1" />
    <path
       id="path4579"
       d="M 79.884873,267.0699 140,246.99999"
       style="fill:none;fill-rule:evenodd;stroke:#ff7f0e;stroke-width:5;stroke-linecap:square;stroke-linejoin:miter;stroke-miterlimit:4;stroke-dasharray:none;stroke-opacity:1" />
    <path
       id="path4581"
       d="M 79.884873,267.0699 20,266.99999"
       style="fill:none;fill-rule:evenodd;stroke:#ff7f0e;stroke-width:5;stroke-linecap:square;stroke-linejoin:miter;stroke-miterlimit:4;stroke-dasharray:none;stroke-opacity:1" />
    <path
       d="M 30.000001,277 A 10.115368,10.115368 0 0 1 20.4787,287.16784 10.115368,10.115368 0 0 1 9.8312735,278.18606 10.115368,10.115368 0 0 1 18.249408,267.08764 10.115368,10.115368 0 0 1 29.769027,274.91952"
       id="path4506"
       style="fill:#1f77b4;fill-opacity:1;stroke:none;stroke-width:0.05057684;stroke-miterlimit:4;stroke-dasharray:none;stroke-opacity:1" />
    <path
       d="m 150,247 a 10.115368,10.115368 0 0 1 -9.5213,10.16784 10.115368,10.115368 0 0 1 -10.64743,-8.98178 10.115368,10.115368 0 0 1 8.41814,-11.09842 10.115368,10.115368 0 0 1 11.51961,7.83188"
       id="use4524"
       style="fill:#ff7f0e;fill-opacity:1;stroke:none;stroke-width:0.05057684;stroke-miterlimit:4;stroke-dasharray:none;stroke-opacity:1" />
    <path
       style="fill:#ff7f0e;fill-opacity:1;stroke:none;stroke-width:0.05057684;stroke-miterlimit:4;stroke-dasharray:none;stroke-opacity:1"
       id="use4526"
       d="m 210,187 a 10.115368,10.115368 0 0 1 -9.5213,10.16784 10.115368,10.115368 0 0 1 -10.64743,-8.98178 10.115368,10.115368 0 0 1 8.41814,-11.09842 10.115368,10.115368 0 0 1 11.51961,7.83188" />
    <path
       style="fill:#aec7e8;fill-opacity:1;stroke:none;stroke-width:0.05057684;stroke-miterlimit:4;stroke-dasharray:none;stroke-opacity:1"
       id="use4553"
       d="m 210,277 a 10.115368,10.115368 0 0 1 -9.5213,10.16784 10.115368,10.115368 0 0 1 -10.64743,-8.98178 10.115368,10.115368 0 0 1 8.41814,-11.09842 10.115368,10.115368 0 0 1 11.51961,7.83188" />
    <path
       d="m 150,217 a 10.115368,10.115368 0 0 1 -9.5213,10.16784 10.115368,10.115368 0 0 1 -10.64743,-8.98178 10.115368,10.115368 0 0 1 8.41814,-11.09842 10.115368,10.115368 0 0 1 11.51961,7.83188"
       id="use4555"
       style="fill:#aec7e8;fill-opacity:1;stroke:none;stroke-width:0.05057684;stroke-miterlimit:4;stroke-dasharray:none;stroke-opacity:1" />
    <path
       style="fill:#1f77b4;fill-opacity:1;stroke:none;stroke-width:0.05057684;stroke-miterlimit:4;stroke-dasharray:none;stroke-opacity:1"
       id="use4557"
       d="m 210,226.99997 a 10.115368,10.115368 0 0 1 -9.5213,10.16784 10.115368,10.115368 0 0 1 -10.64743,-8.98178 10.115368,10.115368 0 0 1 8.41814,-11.09842 10.115368,10.115368 0 0 1 11.51961,7.83188" />
  </g>
</svg>
