<?xml version="1.0" encoding="UTF-8" standalone="no"?>
<!-- Created with Inkscape (http://www.inkscape.org/) -->

<svg
   xmlns:dc="http://purl.org/dc/elements/1.1/"
   xmlns:cc="http://creativecommons.org/ns#"
   xmlns:rdf="http://www.w3.org/1999/02/22-rdf-syntax-ns#"
   xmlns:svg="http://www.w3.org/2000/svg"
   xmlns="http://www.w3.org/2000/svg"
   xmlns:xlink="http://www.w3.org/1999/xlink"
   xmlns:sodipodi="http://sodipodi.sourceforge.net/DTD/sodipodi-0.dtd"
   xmlns:inkscape="http://www.inkscape.org/namespaces/inkscape"
   width="22cm"
   height="22cm"
   viewBox="0 0 220 220"
   version="1.1"
   id="svg8"
   inkscape:version="0.92.2 5c3e80d, 2017-08-06"
   sodipodi:docname="show-partitions.svg">
  <defs
     id="defs2" />
  <sodipodi:namedview
     id="base"
     pagecolor="#ffffff"
     bordercolor="#666666"
     borderopacity="1.0"
     inkscape:pageopacity="0.0"
     inkscape:pageshadow="2"
     inkscape:zoom="1.4"
     inkscape:cx="324.06365"
     inkscape:cy="383.04282"
     inkscape:document-units="mm"
     inkscape:current-layer="layer1"
     showgrid="true"
     units="cm"
     inkscape:window-width="2551"
     inkscape:window-height="2115"
     inkscape:window-x="1"
     inkscape:window-y="1"
     inkscape:window-maximized="0">
    <inkscape:grid
       type="xygrid"
       id="grid815"
       units="cm"
       spacingx="10"
       spacingy="10" />
  </sodipodi:namedview>
  <metadata
     id="metadata5">
    <rdf:RDF>
      <cc:Work
         rdf:about="">
        <dc:format>image/svg+xml</dc:format>
        <dc:type
           rdf:resource="http://purl.org/dc/dcmitype/StillImage" />
        <dc:title></dc:title>
      </cc:Work>
    </rdf:RDF>
  </metadata>
  <g
     inkscape:label="Layer 1"
     inkscape:groupmode="layer"
     id="layer1"
     transform="translate(0,-77.000001)">
    <path
       style="fill:#1f77b4;fill-opacity:1;stroke:none;stroke-width:0.1;stroke-miterlimit:4;stroke-dasharray:none;stroke-opacity:1"
       id="path4506"
       sodipodi:type="arc"
       sodipodi:cx="107.00047"
       sodipodi:cy="-30"
       sodipodi:rx="20"
       sodipodi:ry="20"
       sodipodi:start="6.2762738"
       sodipodi:end="6.0689636"
       sodipodi:open="true"
       d="m 127,-30.138229 a 20,20 0 0 1 -18.82542,20.103736 20,20 0 0 1 -21.051982,-17.758678 20,20 0 0 1 16.644252,-21.943689 20,20 0 0 1 22.77647,15.48512"
       transform="rotate(90)" />
    <path
       d="m 127,-80 a 20,20 0 0 1 -18.82542,20.103737 20,20 0 0 1 -21.051982,-17.758678 20,20 0 0 1 16.644252,-21.94369 20,20 0 0 1 22.77647,15.485121"
       sodipodi:open="true"
       sodipodi:end="6.0689636"
       sodipodi:start="6.2762738"
       sodipodi:ry="20"
       sodipodi:rx="20"
       sodipodi:cy="-79.861771"
       sodipodi:cx="107.00047"
       sodipodi:type="arc"
       id="use4508"
       style="fill:#aec7e8;fill-opacity:1;stroke:none;stroke-width:0.1;stroke-miterlimit:4;stroke-dasharray:none;stroke-opacity:1"
       transform="rotate(90)" />
    <path
       style="fill:#ff7f0e;fill-opacity:1;stroke:none;stroke-width:0.1;stroke-miterlimit:4;stroke-dasharray:none;stroke-opacity:1"
       id="path4512"
       sodipodi:type="arc"
       sodipodi:cx="107.00047"
       sodipodi:cy="-129.86177"
       sodipodi:rx="20"
       sodipodi:ry="20"
       sodipodi:start="6.2762738"
       sodipodi:end="6.0689636"
       sodipodi:open="true"
       d="m 127,-130 a 20,20 0 0 1 -18.82542,20.10374 20,20 0 0 1 -21.051982,-17.75868 20,20 0 0 1 16.644252,-21.94369 20,20 0 0 1 22.77647,15.48512"
       transform="rotate(90)" />
    <path
       d="m 127.00048,-180.00001 a 20,20 0 0 1 -18.82542,20.10373 20,20 0 0 1 -21.051981,-17.75868 20,20 0 0 1 16.644251,-21.94369 20,20 0 0 1 22.77647,15.48512"
       sodipodi:open="true"
       sodipodi:end="6.0689636"
       sodipodi:start="6.2762738"
       sodipodi:ry="20"
       sodipodi:rx="20"
       sodipodi:cy="-179.86179"
       sodipodi:cx="107.00095"
       sodipodi:type="arc"
       id="path4514"
       style="fill:#2ca02c;fill-opacity:1;stroke:none;stroke-width:0.1;stroke-miterlimit:4;stroke-dasharray:none;stroke-opacity:1"
       transform="rotate(90)" />
    <use
       x="0"
       y="0"
       xlink:href="#path4506"
       id="use4516"
       transform="translate(-0.13822904,49.999998)"
       width="100%"
       height="100%" />
    <use
       x="0"
       y="0"
       xlink:href="#use4516"
       id="use4518"
       transform="translate(0,50)"
       width="100%"
       height="100%" />
    <use
       x="0"
       y="0"
       xlink:href="#use4508"
       id="use4520"
       transform="translate(3.2704541e-7,49.999998)"
       width="100%"
       height="100%" />
    <use
       x="0"
       y="0"
       xlink:href="#path4512"
       id="use4522"
       transform="translate(3.2703789e-7,49.999998)"
       width="100%"
       height="100%" />
    <use
       x="0"
       y="0"
       xlink:href="#use4522"
       id="use4524"
       transform="translate(0,50)"
       width="100%"
       height="100%" />
    <use
       x="0"
       y="0"
       xlink:href="#use4524"
       id="use4526"
       transform="translate(0,50)"
       width="100%"
       height="100%" />
    <use
       x="0"
       y="0"
       xlink:href="#path4514"
       id="use4528"
       transform="translate(-1.4931751e-5,49.999517)"
       width="100%"
       height="100%" />
    <use
       x="0"
       y="0"
       xlink:href="#use4528"
       id="use4530"
       transform="translate(0,50)"
       width="100%"
       height="100%" />
  </g>
</svg>
