<?xml version="1.0" encoding="UTF-8" standalone="no"?>
<svg
   xmlns:dc="http://purl.org/dc/elements/1.1/"
   xmlns:cc="http://creativecommons.org/ns#"
   xmlns:rdf="http://www.w3.org/1999/02/22-rdf-syntax-ns#"
   xmlns:svg="http://www.w3.org/2000/svg"
   xmlns="http://www.w3.org/2000/svg"
   xmlns:xlink="http://www.w3.org/1999/xlink"
   id="svg8"
   version="1.1"
   viewBox="0 0 220 220"
   height="22cm"
   width="22cm">
  <defs
     id="defs2">
    <linearGradient
       id="linearGradient5514">
      <stop
         id="stop5510"
         offset="0"
         style="stop-color:#b3b3b3;stop-opacity:0" />
      <stop
         style="stop-color:#b3b3b3;stop-opacity:1"
         offset="0.47933617"
         id="stop5520" />
      <stop
         id="stop5512"
         offset="1"
         style="stop-color:#b3b3b3;stop-opacity:0.01" />
    </linearGradient>
    <linearGradient
       gradientTransform="matrix(0.26458333,0,0,0.26458333,0,72.237498)"
       gradientUnits="userSpaceOnUse"
       y2="320.36218"
       x2="75.590553"
       y1="811.70081"
       x1="151.18111"
       id="linearGradient5518"
       xlink:href="#linearGradient5514" />
    <filter
       height="1.1523075"
       y="-0.076153774"
       width="1.0990001"
       x="-0.049500031"
       id="filter5549"
       style="color-interpolation-filters:sRGB">
      <feGaussianBlur
         id="feGaussianBlur5551"
         stdDeviation="4.1250065" />
    </filter>
  </defs>
  <metadata
     id="metadata5">
    <rdf:RDF>
      <cc:Work
         rdf:about="">
        <dc:format>image/svg+xml</dc:format>
        <dc:type
           rdf:resource="http://purl.org/dc/dcmitype/StillImage" />
        <dc:title></dc:title>
      </cc:Work>
    </rdf:RDF>
  </metadata>
  <g
     transform="translate(0,-77.000001)"
     id="layer1">
    <path
       id="path4637"
       d="m 210.0001,142.23734 -69.99986,40.00014 -60.000472,9.9999 -69.9998617,-40.00014 v 120.00043 l 69.9998617,-30.00024 60.000472,-9.9999 h 69.99986 z"
       style="color:#000000;font-style:normal;font-variant:normal;font-weight:normal;font-stretch:normal;font-size:medium;line-height:normal;font-family:sans-serif;font-variant-ligatures:normal;font-variant-position:normal;font-variant-caps:normal;font-variant-numeric:normal;font-variant-alternates:normal;font-feature-settings:normal;text-indent:0;text-align:start;text-decoration:none;text-decoration-line:none;text-decoration-style:solid;text-decoration-color:#000000;letter-spacing:normal;word-spacing:normal;text-transform:none;writing-mode:lr-tb;direction:ltr;text-orientation:mixed;dominant-baseline:auto;baseline-shift:baseline;text-anchor:start;white-space:normal;shape-padding:0;clip-rule:nonzero;display:inline;overflow:visible;visibility:visible;opacity:1;isolation:auto;mix-blend-mode:normal;color-interpolation:sRGB;color-interpolation-filters:linearRGB;solid-color:#000000;solid-opacity:1;vector-effect:none;fill:url(#linearGradient5518);fill-opacity:1;fill-rule:evenodd;stroke:none;stroke-width:5;stroke-linecap:square;stroke-linejoin:miter;stroke-miterlimit:4;stroke-dasharray:none;stroke-dashoffset:0;stroke-opacity:1;filter:url(#filter5549);color-rendering:auto;image-rendering:auto;shape-rendering:auto;text-rendering:auto;enable-background:accumulate" />
    <path
       d="M 30.000001,226.99999 A 10.115368,10.115368 0 0 1 20.4787,237.16782 10.115368,10.115368 0 0 1 9.8312735,228.18605 10.115368,10.115368 0 0 1 18.249408,217.08762 10.115368,10.115368 0 0 1 29.769027,224.9195"
       id="path4512"
       style="fill:#000000;fill-opacity:1;stroke:none;stroke-width:0.05057684;stroke-miterlimit:4;stroke-dasharray:none;stroke-opacity:1" />
    <path
       style="fill:#000000;fill-opacity:1;stroke:none;stroke-width:0.05057684;stroke-miterlimit:4;stroke-dasharray:none;stroke-opacity:1"
       id="use4522"
       d="m 89.999999,216.99999 a 10.115368,10.115368 0 0 1 -9.521301,10.16783 10.115368,10.115368 0 0 1 -10.647426,-8.98177 10.115368,10.115368 0 0 1 8.418134,-11.09843 10.115368,10.115368 0 0 1 11.519619,7.83188" />
    <path
       d="m 150,206.99999 a 10.115368,10.115368 0 0 1 -9.5213,10.16783 10.115368,10.115368 0 0 1 -10.64743,-8.98177 10.115368,10.115368 0 0 1 8.41814,-11.09843 10.115368,10.115368 0 0 1 11.51961,7.83188"
       id="use4524"
       style="fill:#000000;fill-opacity:1;stroke:none;stroke-width:0.05057684;stroke-miterlimit:4;stroke-dasharray:none;stroke-opacity:1" />
    <path
       id="path4577"
       d="m 201.58203,183.83789 -2.37305,0.79102 -60,20 -2.37109,0.78906 1.58008,4.74414 2.37305,-0.79102 60,-20 2.37109,-0.78906 z"
       style="color:#000000;font-style:normal;font-variant:normal;font-weight:normal;font-stretch:normal;font-size:medium;line-height:normal;font-family:sans-serif;font-variant-ligatures:normal;font-variant-position:normal;font-variant-caps:normal;font-variant-numeric:normal;font-variant-alternates:normal;font-feature-settings:normal;text-indent:0;text-align:start;text-decoration:none;text-decoration-line:none;text-decoration-style:solid;text-decoration-color:#000000;letter-spacing:normal;word-spacing:normal;text-transform:none;writing-mode:lr-tb;direction:ltr;text-orientation:mixed;dominant-baseline:auto;baseline-shift:baseline;text-anchor:start;white-space:normal;shape-padding:0;clip-rule:nonzero;display:inline;overflow:visible;visibility:visible;opacity:1;isolation:auto;mix-blend-mode:normal;color-interpolation:sRGB;color-interpolation-filters:linearRGB;solid-color:#000000;solid-opacity:1;vector-effect:none;fill:#000000;fill-opacity:1;fill-rule:evenodd;stroke:none;stroke-width:5;stroke-linecap:square;stroke-linejoin:miter;stroke-miterlimit:4;stroke-dasharray:none;stroke-dashoffset:0;stroke-opacity:1;color-rendering:auto;image-rendering:auto;shape-rendering:auto;text-rendering:auto;enable-background:accumulate" />
    <path
       id="path4579"
       d="m 80,216.99999 60,-10"
       style="display:inline;fill:none;fill-rule:evenodd;stroke:#000000;stroke-width:5;stroke-linecap:square;stroke-linejoin:miter;stroke-miterlimit:4;stroke-dasharray:none;stroke-opacity:1" />
    <path
       id="path4581"
       d="m 80,216.99999 -60,10"
       style="display:inline;fill:none;fill-rule:evenodd;stroke:#000000;stroke-width:5;stroke-linecap:square;stroke-linejoin:miter;stroke-miterlimit:4;stroke-dasharray:none;stroke-opacity:1" />
    <path
       style="fill:#000000;fill-opacity:1;stroke:none;stroke-width:0.05057684;stroke-miterlimit:4;stroke-dasharray:none;stroke-opacity:1"
       id="use4526"
       d="m 210,186.99999 a 10.115368,10.115368 0 0 1 -9.5213,10.16783 10.115368,10.115368 0 0 1 -10.64743,-8.98177 10.115368,10.115368 0 0 1 8.41814,-11.09843 10.115368,10.115368 0 0 1 11.51961,7.83188" />
  </g>
</svg>
