<?xml version="1.0" encoding="UTF-8" standalone="no"?>
<svg
   xmlns:dc="http://purl.org/dc/elements/1.1/"
   xmlns:cc="http://creativecommons.org/ns#"
   xmlns:rdf="http://www.w3.org/1999/02/22-rdf-syntax-ns#"
   xmlns:svg="http://www.w3.org/2000/svg"
   xmlns="http://www.w3.org/2000/svg"
   xmlns:xlink="http://www.w3.org/1999/xlink"
   xmlns:sodipodi="http://sodipodi.sourceforge.net/DTD/sodipodi-0.dtd"
   xmlns:inkscape="http://www.inkscape.org/namespaces/inkscape"
   id="svg8"
   version="1.1"
   viewBox="0 0 220 220"
   height="22cm"
   width="22cm"
   sodipodi:docname="logspace-off.svg"
   inkscape:version="0.92.4 5da689c313, 2019-01-14">
  <sodipodi:namedview
     pagecolor="#ffffff"
     bordercolor="#666666"
     borderopacity="1"
     objecttolerance="10"
     gridtolerance="10"
     guidetolerance="10"
     inkscape:pageopacity="0"
     inkscape:pageshadow="2"
     inkscape:window-width="2552"
     inkscape:window-height="1426"
     id="namedview42"
     showgrid="true"
     inkscape:zoom="1.135303"
     inkscape:cx="261.31439"
     inkscape:cy="482.84198"
     inkscape:window-x="3841"
     inkscape:window-y="1"
     inkscape:window-maximized="0"
     inkscape:current-layer="g1444"
     inkscape:pagecheckerboard="true">
    <inkscape:grid
       type="xygrid"
       id="grid1411"
       spacingx="2.0000001"
       spacingy="2.0000001" />
  </sodipodi:namedview>
  <defs
     id="defs2">
    <inkscape:perspective
       sodipodi:type="inkscape:persp3d"
       inkscape:vp_x="0 : 110 : 1"
       inkscape:vp_y="0 : 1000 : 0"
       inkscape:vp_z="220 : 110 : 1"
       inkscape:persp3d-origin="110 : 73.333333 : 1"
       id="perspective1478" />
    <linearGradient
       id="linearGradient5514">
      <stop
         id="stop5510"
         offset="0"
         style="stop-color:#b3b3b3;stop-opacity:0" />
      <stop
         style="stop-color:#b3b3b3;stop-opacity:1"
         offset="0.47933617"
         id="stop5520" />
      <stop
         id="stop5512"
         offset="1"
         style="stop-color:#b3b3b3;stop-opacity:0.01" />
    </linearGradient>
    <linearGradient
       gradientTransform="matrix(0.26458333,0,0,0.26458333,0,72.237498)"
       gradientUnits="userSpaceOnUse"
       y2="320.36218"
       x2="75.590553"
       y1="811.70081"
       x1="151.18111"
       id="linearGradient5518"
       xlink:href="#linearGradient5514" />
    <filter
       height="1.1523075"
       y="-0.076153774"
       width="1.0990001"
       x="-0.049500031"
       id="filter5549"
       style="color-interpolation-filters:sRGB">
      <feGaussianBlur
         id="feGaussianBlur5551"
         stdDeviation="4.1250065" />
    </filter>
  </defs>
  <metadata
     id="metadata5">
    <rdf:RDF>
      <cc:Work
         rdf:about="">
        <dc:format>image/svg+xml</dc:format>
        <dc:type
           rdf:resource="http://purl.org/dc/dcmitype/StillImage" />
        <dc:title />
      </cc:Work>
    </rdf:RDF>
  </metadata>
  <g
     transform="translate(0,-77.000001)"
     id="layer1">
    <g
       id="g1468">
      <path
         style="fill:#ffffff;fill-opacity:1;stroke:none;stroke-width:0.05057684;stroke-miterlimit:4;stroke-dasharray:none;stroke-opacity:1"
         d="m 78.851562,202.9375 c -11.219661,0.28118 -17.51178,15.95511 -9.332031,23.80469 7.471896,8.90731 24.44297,3.16324 24.464844,-8.67383 C 94.757328,209.78 87.141204,202.18309 78.851562,202.9375 Z"
         id="path1460"
         inkscape:connector-curvature="0" />
      <path
         style="fill:#ffffff;fill-opacity:1;stroke:none;stroke-width:0.05057684;stroke-miterlimit:4;stroke-dasharray:none;stroke-opacity:1"
         d="m 138.85156,142.9375 c -11.21966,0.28118 -17.51178,15.95511 -9.33203,23.80469 7.47216,8.90715 24.44334,3.16337 24.46485,-8.67383 0.77295,-8.28836 -6.84318,-15.88527 -15.13282,-15.13086 z"
         id="path1462"
         inkscape:connector-curvature="0" />
      <path
         style="fill:#ffffff;fill-opacity:1;stroke:none;stroke-width:0.05057684;stroke-miterlimit:4;stroke-dasharray:none;stroke-opacity:1"
         d="m 199.07812,83.019531 c -11.21054,0.283689 -17.50858,15.953694 -9.32812,23.802739 7.47188,8.90703 24.44446,3.16419 24.46484,-8.673832 0.77381,-8.289849 -6.84624,-15.886647 -15.13672,-15.128907 z"
         id="path1466"
         inkscape:connector-curvature="0" />
      <path
         style="fill:#ffffff;fill-opacity:1;stroke:none;stroke-width:0.05057684;stroke-miterlimit:4;stroke-dasharray:none;stroke-opacity:1"
         d="M 18.851562,262.9375 C 7.6319011,263.21868 1.3397816,278.89261 9.5195312,286.74219 16.99175,295.6494 33.962671,289.90542 33.984375,278.06836 34.757328,269.78 27.141204,262.18309 18.851562,262.9375 Z"
         id="path1458"
         inkscape:connector-curvature="0" />
      <path
         id="path1464"
         d="M 200.00001,96.999999 20.000001,277.00001"
         style="display:inline;fill:none;fill-rule:evenodd;stroke:#ffffff;stroke-width:14.81666721;stroke-linecap:square;stroke-linejoin:miter;stroke-miterlimit:4;stroke-dasharray:none;stroke-opacity:1"
         inkscape:connector-curvature="0"
         sodipodi:nodetypes="cc" />
    </g>
    <g
       id="g1444">
      <path
         inkscape:connector-curvature="0"
         style="fill:#000000;fill-opacity:1;stroke:none;stroke-width:0.05057684;stroke-miterlimit:4;stroke-dasharray:none;stroke-opacity:1"
         id="path4512"
         d="m 30.000002,277.00001 a 10.115368,10.115368 0 0 1 -9.521301,10.16783 10.115368,10.115368 0 0 1 -10.6474275,-8.98177 10.115368,10.115368 0 0 1 8.4181355,-11.09843 10.115368,10.115368 0 0 1 11.519619,7.83188" />
      <path
         d="m 89.999999,216.99999 a 10.115368,10.115368 0 0 1 -9.521301,10.16783 10.115368,10.115368 0 0 1 -10.647426,-8.98177 10.115368,10.115368 0 0 1 8.418134,-11.09843 10.115368,10.115368 0 0 1 11.519619,7.83188"
         id="use4522"
         style="fill:#000000;fill-opacity:1;stroke:none;stroke-width:0.05057684;stroke-miterlimit:4;stroke-dasharray:none;stroke-opacity:1" />
      <path
         inkscape:connector-curvature="0"
         style="fill:#000000;fill-opacity:1;stroke:none;stroke-width:0.05057684;stroke-miterlimit:4;stroke-dasharray:none;stroke-opacity:1"
         id="use4524"
         d="m 150.00001,157 a 10.115368,10.115368 0 0 1 -9.5213,10.16783 10.115368,10.115368 0 0 1 -10.64743,-8.98177 10.115368,10.115368 0 0 1 8.41814,-11.09843 10.115368,10.115368 0 0 1 11.51961,7.83188" />
      <path
         sodipodi:nodetypes="cc"
         inkscape:connector-curvature="0"
         style="display:inline;fill:none;fill-rule:evenodd;stroke:#000000;stroke-width:6.35000023;stroke-linecap:square;stroke-linejoin:miter;stroke-miterlimit:4;stroke-dasharray:none;stroke-opacity:1"
         d="M 200.00001,96.999999 20.000001,277.00001"
         id="path4581" />
      <path
         inkscape:connector-curvature="0"
         d="m 210.23099,97.080489 a 10.115368,10.115368 0 0 1 -9.5213,10.167831 10.115368,10.115368 0 0 1 -10.64743,-8.981771 10.115368,10.115368 0 0 1 8.41814,-11.09843 10.115368,10.115368 0 0 1 11.51961,7.83188"
         id="use4526"
         style="fill:#000000;fill-opacity:1;stroke:none;stroke-width:0.05057684;stroke-miterlimit:4;stroke-dasharray:none;stroke-opacity:1" />
    </g>
  </g>
</svg>
