<?xml version="1.0" encoding="UTF-8" standalone="no"?>
<svg
   xmlns:dc="http://purl.org/dc/elements/1.1/"
   xmlns:cc="http://creativecommons.org/ns#"
   xmlns:rdf="http://www.w3.org/1999/02/22-rdf-syntax-ns#"
   xmlns:svg="http://www.w3.org/2000/svg"
   xmlns="http://www.w3.org/2000/svg"
   xmlns:xlink="http://www.w3.org/1999/xlink"
   xmlns:sodipodi="http://sodipodi.sourceforge.net/DTD/sodipodi-0.dtd"
   xmlns:inkscape="http://www.inkscape.org/namespaces/inkscape"
   id="svg8"
   version="1.1"
   viewBox="0 0 220 220"
   height="22cm"
   width="22cm"
   sodipodi:docname="logspace-on.svg"
   inkscape:version="0.92.4 5da689c313, 2019-01-14">
  <sodipodi:namedview
     pagecolor="#ffffff"
     bordercolor="#666666"
     borderopacity="1"
     objecttolerance="10"
     gridtolerance="10"
     guidetolerance="10"
     inkscape:pageopacity="0"
     inkscape:pageshadow="2"
     inkscape:window-width="2552"
     inkscape:window-height="1426"
     id="namedview42"
     showgrid="true"
     inkscape:zoom="1.135303"
     inkscape:cx="357.34419"
     inkscape:cy="392.3171"
     inkscape:window-x="3841"
     inkscape:window-y="1"
     inkscape:window-maximized="0"
     inkscape:current-layer="g1444"
     inkscape:pagecheckerboard="true">
    <inkscape:grid
       type="xygrid"
       id="grid1411"
       spacingx="2.0000001"
       spacingy="2.0000001" />
  </sodipodi:namedview>
  <defs
     id="defs2">
    <inkscape:perspective
       sodipodi:type="inkscape:persp3d"
       inkscape:vp_x="0 : 110 : 1"
       inkscape:vp_y="0 : 1000 : 0"
       inkscape:vp_z="220 : 110 : 1"
       inkscape:persp3d-origin="110 : 73.333333 : 1"
       id="perspective1478" />
    <linearGradient
       id="linearGradient5514">
      <stop
         id="stop5510"
         offset="0"
         style="stop-color:#b3b3b3;stop-opacity:0" />
      <stop
         style="stop-color:#b3b3b3;stop-opacity:1"
         offset="0.47933617"
         id="stop5520" />
      <stop
         id="stop5512"
         offset="1"
         style="stop-color:#b3b3b3;stop-opacity:0.01" />
    </linearGradient>
    <linearGradient
       gradientTransform="matrix(0.26458333,0,0,0.26458333,0,72.237498)"
       gradientUnits="userSpaceOnUse"
       y2="320.36218"
       x2="75.590553"
       y1="811.70081"
       x1="151.18111"
       id="linearGradient5518"
       xlink:href="#linearGradient5514" />
    <filter
       height="1.1523075"
       y="-0.076153774"
       width="1.0990001"
       x="-0.049500031"
       id="filter5549"
       style="color-interpolation-filters:sRGB">
      <feGaussianBlur
         id="feGaussianBlur5551"
         stdDeviation="4.1250065" />
    </filter>
  </defs>
  <metadata
     id="metadata5">
    <rdf:RDF>
      <cc:Work
         rdf:about="">
        <dc:format>image/svg+xml</dc:format>
        <dc:type
           rdf:resource="http://purl.org/dc/dcmitype/StillImage" />
        <dc:title></dc:title>
      </cc:Work>
    </rdf:RDF>
  </metadata>
  <g
     transform="translate(0,-77.000001)"
     id="layer1">
    <g
       id="g1468">
      <path
         style="fill:#ffffff;fill-opacity:1;stroke:none;stroke-width:0.05057684;stroke-miterlimit:4;stroke-dasharray:none;stroke-opacity:1"
         d="m 140.40039,84.955078 c -11.95373,-0.905797 -20.81907,13.964063 -14.32422,24.046872 5.44301,10.5984 22.99676,10.84074 28.11524,-0.22851 6.15874,-9.969134 -1.94557,-24.358646 -13.79102,-23.818362 z"
         id="path1460"
         inkscape:connector-curvature="0" />
      <path
         style="fill:#ffffff;fill-opacity:1;stroke:none;stroke-width:0.05057684;stroke-miterlimit:4;stroke-dasharray:none;stroke-opacity:1"
         d="m 80.400391,102.95508 c -11.95403,-0.90614 -20.819005,13.96392 -14.324219,24.04687 5.443004,10.5984 22.996762,10.84074 28.115234,-0.22851 6.158774,-9.96897 -1.945714,-24.35906 -13.791015,-23.81836 z"
         id="path1462"
         inkscape:connector-curvature="0" />
      <path
         style="fill:#ffffff;fill-opacity:1;stroke:none;stroke-width:0.05057684;stroke-miterlimit:4;stroke-dasharray:none;stroke-opacity:1"
         d="M 19.636719,260.93945 C 7.7178156,260.3772 -0.5378907,275.25948 5.9335938,285.16797 c 5.4258012,9.90593 21.6420132,10.69768 27.3925782,0.67187 7.301691,-10.01077 -1.044737,-26.02429 -13.689453,-24.90039 z"
         id="path1466"
         inkscape:connector-curvature="0" />
      <path
         style="fill:#ffffff;fill-opacity:1;stroke:none;stroke-width:0.05057684;stroke-miterlimit:4;stroke-dasharray:none;stroke-opacity:1"
         d="m 200.40039,80.994141 c -11.95403,-0.906141 -20.819,13.963917 -14.32422,24.046879 5.44301,10.59839 22.99676,10.84074 28.11524,-0.22852 6.15877,-9.968965 -1.94572,-24.359062 -13.79102,-23.818359 z"
         id="path1458"
         inkscape:connector-curvature="0" />
      <path
         id="path1464"
         d="m 20.002792,277.11511 c 0,-140.00001 40,-180.000009 180.000008,-180.000009"
         style="display:inline;fill:none;fill-rule:evenodd;stroke:#ffffff;stroke-width:14.81666721;stroke-linecap:square;stroke-linejoin:miter;stroke-miterlimit:4;stroke-dasharray:none;stroke-opacity:1"
         inkscape:connector-curvature="0"
         sodipodi:nodetypes="cc" />
    </g>
    <g
       id="g1444"
       transform="rotate(-180,110.0014,187.05756)">
      <path
         inkscape:connector-curvature="0"
         style="fill:#000000;fill-opacity:1;stroke:none;stroke-width:0.05057684;stroke-miterlimit:4;stroke-dasharray:none;stroke-opacity:1"
         id="path4512"
         d="m 30.000002,277.00001 a 10.115368,10.115368 0 0 1 -9.521301,10.16783 10.115368,10.115368 0 0 1 -10.6474275,-8.98177 10.115368,10.115368 0 0 1 8.4181355,-11.09843 10.115368,10.115368 0 0 1 11.519619,7.83188" />
      <path
         d="m 89.999999,273.00001 a 10.115368,10.115368 0 0 1 -9.521301,10.16783 10.115368,10.115368 0 0 1 -10.647426,-8.98177 10.115368,10.115368 0 0 1 8.418134,-11.09843 10.115368,10.115368 0 0 1 11.519619,7.83188"
         id="use4522"
         style="fill:#000000;fill-opacity:1;stroke:none;stroke-width:0.05057684;stroke-miterlimit:4;stroke-dasharray:none;stroke-opacity:1"
         inkscape:connector-curvature="0" />
      <path
         inkscape:connector-curvature="0"
         style="fill:#000000;fill-opacity:1;stroke:none;stroke-width:0.05057684;stroke-miterlimit:4;stroke-dasharray:none;stroke-opacity:1"
         id="use4524"
         d="m 150.00001,255.00001 a 10.115368,10.115368 0 0 1 -9.5213,10.16783 10.115368,10.115368 0 0 1 -10.64743,-8.98177 10.115368,10.115368 0 0 1 8.41814,-11.09843 10.115368,10.115368 0 0 1 11.51961,7.83188" />
      <path
         sodipodi:nodetypes="cc"
         inkscape:connector-curvature="0"
         style="display:inline;fill:none;fill-rule:evenodd;stroke:#000000;stroke-width:6.35000023;stroke-linecap:square;stroke-linejoin:miter;stroke-miterlimit:4;stroke-dasharray:none;stroke-opacity:1"
         d="m 200.00001,96.999999 c 0,140.000011 -40,180.000011 -180.000009,180.000011"
         id="path4581" />
      <path
         inkscape:connector-curvature="0"
         d="m 210.23099,97.080489 a 10.115368,10.115368 0 0 1 -9.5213,10.167831 10.115368,10.115368 0 0 1 -10.64743,-8.981771 10.115368,10.115368 0 0 1 8.41814,-11.09843 10.115368,10.115368 0 0 1 11.51961,7.83188"
         id="use4526"
         style="fill:#000000;fill-opacity:1;stroke:none;stroke-width:0.05057684;stroke-miterlimit:4;stroke-dasharray:none;stroke-opacity:1" />
    </g>
  </g>
</svg>
