<?xml version="1.0" encoding="UTF-8" standalone="no"?>
<svg
   xmlns:dc="http://purl.org/dc/elements/1.1/"
   xmlns:cc="http://creativecommons.org/ns#"
   xmlns:rdf="http://www.w3.org/1999/02/22-rdf-syntax-ns#"
   xmlns:svg="http://www.w3.org/2000/svg"
   xmlns="http://www.w3.org/2000/svg"
   xmlns:sodipodi="http://sodipodi.sourceforge.net/DTD/sodipodi-0.dtd"
   xmlns:inkscape="http://www.inkscape.org/namespaces/inkscape"
   sodipodi:docname="prune-clusters.svg"
   width="22"
   height="22"
   viewBox="0 0 5.8208335 5.8208335"
   version="1.1"
   id="svg8"
   inkscape:version="1.0.1 (3bc2e813f5, 2020-09-07)">
  <sodipodi:namedview
     pagecolor="#ffffff"
     bordercolor="#666666"
     borderopacity="1"
     objecttolerance="10"
     gridtolerance="10"
     guidetolerance="10"
     inkscape:pageopacity="0"
     inkscape:pageshadow="2"
     inkscape:window-width="2552"
     inkscape:window-height="1372"
     id="namedview966"
     showgrid="false"
     inkscape:zoom="51.650079"
     inkscape:cx="11.383177"
     inkscape:cy="11.220792"
     inkscape:window-x="1"
     inkscape:window-y="31"
     inkscape:window-maximized="0"
     inkscape:current-layer="layer1"
     inkscape:document-rotation="0"
     inkscape:pagecheckerboard="true"
     units="px" />
  <defs
     id="defs2" />
  <metadata
     id="metadata5">
    <rdf:RDF>
      <cc:Work
         rdf:about="">
        <dc:format>image/svg+xml</dc:format>
        <dc:type
           rdf:resource="http://purl.org/dc/dcmitype/StillImage" />
        <dc:title></dc:title>
      </cc:Work>
    </rdf:RDF>
    <rdf:RDF>
      <cc:Work
         rdf:about="">
        <dc:title />
      </cc:Work>
    </rdf:RDF>
  </metadata>
  <g
     transform="translate(0,-77.000001)"
     id="layer1">
    <g
       id="g1045"
       transform="matrix(0.02596739,0,0,0.02535981,0.0542513,75.313312)"
       style="stroke-width:5.1552;stroke-miterlimit:4;stroke-dasharray:none">
      <path
         id="path957"
         style="fill:#808080;fill-opacity:0.99182;stroke:#fefefe;stroke-width:5.1552;stroke-linecap:round;stroke-linejoin:bevel;stroke-miterlimit:4;stroke-dasharray:none;stroke-opacity:1"
         d="m 129.32938,86.056641 c -6.83753,0.119975 -13.54377,3.76593 -17.18252,9.587427 -3.86034,5.971162 -4.43364,13.933952 -1.32395,20.348022 2.61633,5.45726 7.64681,9.74748 13.52744,11.26967 2.74039,0.80904 5.64786,0.56507 8.45937,0.38407 4.08727,-0.40302 7.96983,-2.29843 10.91272,-5.14804 1.70826,-1.61589 3.47063,-3.2864 4.39463,-5.49985 1.39777,-2.67442 2.434,-5.58311 2.54891,-8.62352 0.51311,-6.20551 -2.03664,-12.536168 -6.64719,-16.708487 -3.95213,-3.649162 -9.30127,-5.732413 -14.68941,-5.609292 z" />
      <path
         id="path959"
         style="fill:#808080;fill-opacity:0.99182;stroke:#fefefe;stroke-width:5.1552;stroke-linecap:round;stroke-linejoin:bevel;stroke-miterlimit:4;stroke-dasharray:none;stroke-opacity:1"
         d="m 178.2168,86.207031 c -7.61114,0.343818 -14.61721,5.529317 -17.55237,12.500278 -2.619,5.900601 -2.20343,12.990061 0.99292,18.586521 2.86104,5.22103 8.12138,8.90284 13.88446,10.22174 2.32519,0.59681 4.75146,0.22868 7.11444,0.11529 3.19594,-0.21296 6.22725,-1.53332 8.89648,-3.24609 3.70669,-2.50284 6.55961,-6.24077 8.10479,-10.42706 1.15231,-3.3663 1.12192,-7.00332 0.83857,-10.50849 -0.38731,-2.85997 -1.6866,-5.514868 -3.17391,-7.95456 -3.70096,-5.743142 -10.41422,-9.536751 -17.29208,-9.335044 -0.60484,-0.01454 -1.20888,0.03168 -1.8133,0.04742 z" />
    </g>
    <path
       id="path967"
       style="fill:#505050;fill-opacity:0.99182;stroke:#fefefe;stroke-width:0.132292;stroke-linecap:round;stroke-linejoin:bevel;stroke-miterlimit:4;stroke-dasharray:none;stroke-opacity:1"
       d="m 0.78585002,77.499456 c -0.10965529,0.0045 -0.21512476,0.05 -0.29994964,0.116641 -0.0989027,0.07977 -0.17013931,0.194016 -0.1918329,0.317855 -0.005983,0.05897 -0.00441,0.118635 -0.001325,0.177739 0.008746,0.06626 0.0374234,0.128672 0.0708518,0.186386 0.073348,0.124557 0.20201714,0.214629 0.34498859,0.246727 0.0667726,0.01618 0.1365676,0.0094 0.20433316,0.0042 0.11404307,-0.01115 0.21896917,-0.07021 0.29954327,-0.147862 0.099871,-0.09683 0.1622042,-0.232643 0.1579977,-0.371093 -2.971e-4,-0.05975 -0.00399,-0.120642 -0.02761,-0.176563 -0.046035,-0.131116 -0.1487373,-0.241124 -0.2750132,-0.303183 -0.063631,-0.02944 -0.132387,-0.0512 -0.2035115,-0.05027 -0.0261444,-9.64e-4 -0.0523235,-0.0015 -0.0784778,-5.47e-4 z" />
    <path
       id="path969"
       style="fill:#505050;fill-opacity:0.99182;stroke:#fefefe;stroke-width:0.132292;stroke-linecap:round;stroke-linejoin:bevel;stroke-miterlimit:4;stroke-dasharray:none;stroke-opacity:1"
       d="m 0.8143046,78.766506 c -0.0803533,-4.49e-4 -0.16005357,0.01935 -0.23078067,0.0565 -0.16922696,0.08297 -0.28474476,0.258405 -0.2940673,0.442846 -0.0104553,0.160018 0.0590203,0.32285 0.18415447,0.42698 0.0978795,0.08316 0.22668837,0.134368 0.35708933,0.132888 0.11071321,-0.0045 0.22392607,-0.03108 0.31342727,-0.09759 0.1103403,-0.07971 0.197442,-0.196725 0.219511,-0.330988 0.020782,-0.127424 0.00555,-0.265281 -0.066389,-0.375938 -0.077664,-0.12434 -0.2092817,-0.216302 -0.35536521,-0.24615 -0.0420255,-0.0077 -0.0849231,-0.0092 -0.12758076,-0.0086 z" />
    <path
       id="path971"
       style="fill:#505050;fill-opacity:0.99182;stroke:#fefefe;stroke-width:0.132292;stroke-linecap:round;stroke-linejoin:bevel;stroke-miterlimit:4;stroke-dasharray:none;stroke-opacity:1"
       d="m 0.81902137,80.033208 c -0.13096449,0.0027 -0.26152402,0.05134 -0.35588475,0.141073 -0.068373,0.06136 -0.12111893,0.139165 -0.14922431,0.225812 -0.019097,0.04636 -0.0226746,0.09649 -0.0216526,0.145927 -0.001145,0.06155 -7.9839e-4,0.12465 0.0227192,0.182812 0.0470165,0.133031 0.147699,0.249087 0.27787575,0.310665 0.0682925,0.02979 0.14129563,0.04926 0.21589515,0.05539 0.0383141,0.0048 0.0764202,-0.0073 0.11429327,-0.0119 0.0539289,-0.0088 0.10777852,-0.02142 0.15580662,-0.04788 0.1565245,-0.08031 0.2734771,-0.237031 0.2920587,-0.410033 0.00746,-0.0946 -0.00155,-0.192788 -0.045098,-0.278913 C 1.2825304,80.255491 1.2180046,80.172207 1.1297822,80.11932 1.0382092,80.06057 0.92864379,80.02966 0.8190207,80.03319 Z" />
    <path
       id="path973"
       style="fill:#505050;fill-opacity:0.99182;stroke:#fefefe;stroke-width:0.132292;stroke-linecap:round;stroke-linejoin:bevel;stroke-miterlimit:4;stroke-dasharray:none;stroke-opacity:1"
       d="m 0.81547116,81.30328 c -0.0644833,0.0014 -0.13044705,0.0081 -0.18878031,0.03701 -0.0784629,0.03425 -0.15365863,0.08008 -0.20764527,0.146598 -0.0598267,0.07165 -0.10753947,0.15646 -0.12242709,0.248621 -0.0123011,0.0951 -0.0103438,0.194541 0.0269929,0.284527 0.0564151,0.147711 0.18517076,0.264843 0.33782982,0.314374 0.0506028,0.01882 0.1047262,0.02572 0.15867419,0.02379 0.0788023,-3.22e-4 0.15963301,-0.0077 0.231429,-0.04191 0.1349962,-0.05994 0.241577,-0.174981 0.2932464,-0.31036 0.032108,-0.07815 0.024715,-0.164018 0.024181,-0.246328 -0.00242,-0.06193 -0.029033,-0.12006 -0.05682,-0.174738 -0.079449,-0.146894 -0.2317322,-0.256387 -0.40112882,-0.278861 -0.0317412,-0.0031 -0.0636855,-0.0032 -0.0955518,-0.0027 z" />
    <path
       id="path948"
       style="color:#232629;fill:#ffffff;fill-opacity:1;stroke:none;stroke-width:0.264583"
       sodipodi:type="inkscape:offset"
       inkscape:radius="0.03517196"
       inkscape:original="M 3.1796875 78.658203 C 3.1746275 78.666503 3.1691235 78.675304 3.1640625 78.683594 C 3.1048825 78.789915 3.0292723 78.887327 2.9746094 78.996094 C 2.9342974 79.084534 2.967087 79.186837 3.015625 79.265625 C 3.2721659 79.70226 3.533892 80.135068 3.7929688 80.570312 L 3.4179688 81.111328 C 3.1609131 81.014348 2.8454591 81.08982 2.6660156 81.294922 C 2.4985615 81.478804 2.4473158 81.758273 2.5449219 81.986328 C 2.6332129 82.202215 2.8408936 82.367828 3.078125 82.398438 C 3.3100942 82.432038 3.5597813 82.341818 3.7070312 82.162109 C 3.8606896 81.9806 3.9089608 81.714358 3.8125 81.496094 C 3.801463 81.469004 3.7881725 81.443319 3.7734375 81.417969 L 3.8496094 81.310547 C 3.965184 81.300127 4.067128 81.236929 4.1542969 81.166016 C 4.1655879 81.162216 4.1858224 81.13827 4.1933594 81.15625 C 4.2522624 81.24369 4.3130204 81.329289 4.3730469 81.416016 C 4.2551573 81.61309 4.2533905 81.871715 4.3730469 82.068359 C 4.4912977 82.270442 4.7233009 82.406578 4.9628906 82.404297 C 5.1976787 82.405997 5.4309394 82.284384 5.5507812 82.085938 C 5.6746828 81.887962 5.6849141 81.625455 5.5683594 81.421875 C 5.4590122 81.223261 5.2417913 81.082416 5.0097656 81.072266 C 4.9144916 81.066466 4.8178167 81.080061 4.7285156 81.113281 L 4.3535156 80.570312 C 4.6187507 80.125849 4.8862039 79.683573 5.1464844 79.236328 C 5.1887124 79.158018 5.2077552 79.056907 5.1601562 78.976562 C 5.1211563 78.898872 5.0667308 78.831087 5.0234375 78.755859 C 4.9863935 78.710519 4.905101 78.730386 4.890625 78.785156 L 4.0722656 80.148438 C 3.7746355 79.651674 3.4773419 79.154952 3.1796875 78.658203 z M 4.0839844 80.660156 C 4.1331034 80.668556 4.153936 80.740474 4.109375 80.767578 C 4.07575 80.791368 4.0212719 80.775795 4.0136719 80.734375 C 4.0033729 80.692375 4.0397604 80.652906 4.0839844 80.660156 z M 3.1796875 81.53125 C 3.3025159 81.52835 3.4109695 81.650988 3.3867188 81.769531 C 3.3703997 81.864991 3.2790818 81.947122 3.1777344 81.943359 C 3.0730924 81.943694 2.9733384 81.859993 2.96875 81.755859 C 2.95953 81.660649 3.0252532 81.562367 3.1210938 81.539062 C 3.1406197 81.533762 3.1585335 81.53145 3.1796875 81.53125 z M 4.96875 81.53125 C 5.0944791 81.52825 5.2042193 81.656919 5.1738281 81.777344 C 5.1540621 81.872074 5.0599471 81.950697 4.9589844 81.943359 C 4.8554194 81.940259 4.7580921 81.85516 4.7558594 81.751953 C 4.7491394 81.659833 4.8120052 81.565643 4.9042969 81.541016 C 4.9245699 81.534816 4.947504 81.53125 4.96875 81.53125 z "
       d="m 3.1835938,78.623047 a 0.03517548,0.03517548 0 0 0 -0.033203,0.01758 c -0.00491,0.0081 -0.010423,0.01687 -0.015625,0.02539 a 0.03517548,0.03517548 0 0 0 -0.00195,0 C 3.075384,78.76919 3.0000822,78.867603 2.9433594,78.980469 a 0.03517548,0.03517548 0 0 0 0,0.002 c -0.047543,0.104304 -0.00899,0.21644 0.042969,0.300781 h -0.00195 c 0.252844,0.430343 0.5123865,0.856638 0.7675781,1.285156 L 3.4023438,81.072266 C 3.1366112,80.984612 2.8246597,81.062079 2.640625,81.271484 2.4636311,81.465842 2.4082707,81.758295 2.5117188,82 c 0.092987,0.227369 0.3107254,0.400633 0.5605468,0.433594 0.2443529,0.03539 0.5061632,-0.05968 0.6621094,-0.25 0.1614208,-0.191645 0.2116378,-0.46978 0.109375,-0.701172 h 0.00195 c -0.00901,-0.02212 -0.020074,-0.04209 -0.03125,-0.0625 l 0.056641,-0.07813 c 0.1144397,-0.01546 0.2114948,-0.07592 0.2949218,-0.142578 l 0.00586,-0.0039 c 0.0011,-8.89e-4 0.00281,-0.0011 0.00391,-0.002 0.052293,0.07711 0.105437,0.152467 0.1582032,0.228516 -0.11208,0.20538 -0.1126427,0.462896 0.00977,0.664063 h -0.00195 c 0.1249011,0.213447 0.3679665,0.355925 0.6210937,0.353515 0.2465893,0.0018 0.4899717,-0.124474 0.6171875,-0.333984 v -0.002 c 0.1299645,-0.208905 0.1427067,-0.484075 0.019531,-0.699219 -0.1154504,-0.2097 -0.3426298,-0.356459 -0.5878906,-0.367188 -0.090512,-0.0055 -0.1812161,0.0071 -0.2675782,0.03516 L 4.3945312,80.568359 c 0.2613417,-0.437772 0.526545,-0.873432 0.7832032,-1.314453 0.045768,-0.08487 0.068269,-0.198412 0.013672,-0.292968 l -0.00195,-0.002 C 5.1483936,78.878023 5.0957538,78.80964 5.0546875,78.738281 a 0.03517548,0.03517548 0 0 0 -0.00391,-0.0039 c -0.05618,-0.06876 -0.1711078,-0.04317 -0.1933593,0.04102 l -0.7851563,1.30664 C 3.7844176,79.601562 3.4968875,79.1211 3.2089844,78.640625 a 0.03517548,0.03517548 0 0 0 -0.025391,-0.01758 z m 0.8945312,2.072265 c 0.00893,0.0015 0.016767,0.0088 0.019531,0.01953 0.00276,0.01072 0.00254,0.01833 -0.00586,0.02344 a 0.03517548,0.03517548 0 0 0 -0.00195,0 c -0.00655,0.0046 -0.018466,0.0068 -0.027344,0.0039 -0.00888,-0.0029 -0.012423,-0.0069 -0.013672,-0.01367 a 0.03517548,0.03517548 0 0 0 -0.00195,-0.002 c -0.00452,-0.01844 0.010176,-0.0347 0.03125,-0.03125 z m -0.8984375,0.871094 c 0.098948,-0.0023 0.1910442,0.101609 0.171875,0.195313 a 0.03517548,0.03517548 0 0 0 0,0.002 c -0.013211,0.07728 -0.090273,0.147561 -0.171875,0.144531 a 0.03517548,0.03517548 0 0 0 -0.00195,0 c -0.085815,2.75e-4 -0.1701901,-0.07173 -0.1738282,-0.154297 a 0.03517548,0.03517548 0 0 0 0,-0.002 c -0.00745,-0.07694 0.047632,-0.160874 0.125,-0.179687 a 0.03517548,0.03517548 0 0 0 0.00195,0 c 0.016773,-0.0046 0.030049,-0.0057 0.048828,-0.0059 z m 1.7890625,0 c 0.1012654,-0.0024 0.1958963,0.107941 0.171875,0.203125 a 0.03517548,0.03517548 0 0 0 -0.00195,0 c -0.016001,0.07669 -0.096464,0.144579 -0.1777344,0.138672 -0.084982,-0.0025 -0.1681582,-0.07472 -0.1699219,-0.15625 a 0.03517548,0.03517548 0 0 0 0,-0.002 c -0.00544,-0.07451 0.048496,-0.155888 0.1230469,-0.175781 0.016786,-0.0051 0.037377,-0.0078 0.054687,-0.0078 z" />
    <path
       style="color:#232629;fill:currentColor;fill-opacity:1;stroke:none;stroke-width:0.264583"
       d="m 3.1788297,78.827122 c -0.1290416,0.218275 -0.1942333,0.218275 -0.065193,0.436561 l 0.7822931,1.309702 -0.447025,0.645748 c -0.081064,-0.04015 -0.1732222,-0.06369 -0.2700767,-0.06369 -0.3293091,0 -0.5960318,0.260482 -0.5960318,0.582091 0,0.321599 0.2667227,0.58208 0.5960318,0.58208 0.3293075,0 0.5960321,-0.260481 0.5960321,-0.58208 0,-0.117877 -0.040752,-0.226657 -0.1024421,-0.318331 -0.00147,-0.0022 0.00147,-0.0066 0,-0.0088 l 0.1303817,-0.181908 c 0.2390096,-0.0077 0.2724615,-0.172514 0.4190856,-0.172801 0.00327,0 0.00608,-2.89e-4 0.00935,0 l 0.00935,0.01815 0.2328259,0.336515 v 0.0088 c -0.061397,0.09163 -0.1030287,0.200455 -0.1030287,0.318331 0,0.321599 0.2667256,0.582091 0.5960342,0.582091 0.3293088,0 0.5960334,-0.260492 0.5960334,-0.582091 0,-0.321598 -0.2667246,-0.582091 -0.5960334,-0.582091 -0.096856,0 -0.1887331,0.02354 -0.2694958,0.06369 L 4.2498928,80.573341 c 0,0 0.7852736,-1.312024 0.7822939,-1.309702 0.1290416,-0.218274 0.063268,-0.218274 -0.065769,-0.43656 L 4.072368,80.318678 Z m 0.8934675,1.746263 h 5.765e-4 c 0.082258,0 0.1490071,0.06523 0.1490071,0.14552 0,0.07392 -0.057365,0.136203 -0.1303815,0.145521 h -0.037249 c -0.073011,-0.0088 -0.1309639,-0.07161 -0.1309639,-0.145521 0,-0.0803 0.066759,-0.14552 0.1490084,-0.14552 z m -0.89405,0.873131 c 0.1645053,0 0.2980161,0.130384 0.2980161,0.29104 0,0.160657 -0.1335108,0.29104 -0.2980161,0.29104 -0.164505,0 -0.2980163,-0.130383 -0.2980163,-0.29104 0,-0.160656 0.1335113,-0.29104 0.2980163,-0.29104 z m 1.7880997,0 c 0.164506,0 0.2980166,0.130384 0.2980166,0.29104 0,0.160657 -0.1335106,0.29104 -0.2980166,0.29104 -0.1645047,0 -0.2980158,-0.130383 -0.2980158,-0.29104 0,-0.160656 0.1335111,-0.29104 0.2980158,-0.29104 z"
       class="ColorScheme-Text"
       id="path3752" />
    <g
       id="g1053"
       inkscape:transform-center-x="-47.557864"
       inkscape:transform-center-y="22.456383"
       transform="rotate(90,7.4500214,229.65226)"
       style="stroke-width:0.13229167;stroke-miterlimit:4;stroke-dasharray:none" />
  </g>
</svg>
