<?xml version="1.0" encoding="UTF-8" standalone="no"?>
<svg
   xmlns:dc="http://purl.org/dc/elements/1.1/"
   xmlns:cc="http://creativecommons.org/ns#"
   xmlns:rdf="http://www.w3.org/1999/02/22-rdf-syntax-ns#"
   xmlns:svg="http://www.w3.org/2000/svg"
   xmlns="http://www.w3.org/2000/svg"
   xmlns:xlink="http://www.w3.org/1999/xlink"
   id="svg8"
   version="1.1"
   viewBox="0 0 220 220"
   height="22cm"
   width="22cm">
  <defs
     id="defs2" />
  <metadata
     id="metadata5">
    <rdf:RDF>
      <cc:Work
         rdf:about="">
        <dc:format>image/svg+xml</dc:format>
        <dc:type
           rdf:resource="http://purl.org/dc/dcmitype/StillImage" />
        <dc:title></dc:title>
      </cc:Work>
    </rdf:RDF>
  </metadata>
  <g
     transform="translate(0,-77.000001)"
     id="layer1">
    <path
       transform="rotate(90)"
       d="m 127,-30.138229 a 20,20 0 0 1 -18.82542,20.103736 20,20 0 0 1 -21.051982,-17.758678 20,20 0 0 1 16.644252,-21.943689 20,20 0 0 1 22.77647,15.48512"
       id="path4506"
       style="fill:#1f77b4;fill-opacity:1;stroke:none;stroke-width:0.1;stroke-miterlimit:4;stroke-dasharray:none;stroke-opacity:1" />
    <path
       transform="rotate(90)"
       style="fill:#aec7e8;fill-opacity:1;stroke:none;stroke-width:0.1;stroke-miterlimit:4;stroke-dasharray:none;stroke-opacity:1"
       id="use4508"
       d="m 127,-80 a 20,20 0 0 1 -18.82542,20.103737 20,20 0 0 1 -21.051982,-17.758678 20,20 0 0 1 16.644252,-21.94369 20,20 0 0 1 22.77647,15.485121" />
    <path
       transform="rotate(90)"
       d="m 127,-130 a 20,20 0 0 1 -18.82542,20.10374 20,20 0 0 1 -21.051982,-17.75868 20,20 0 0 1 16.644252,-21.94369 20,20 0 0 1 22.77647,15.48512"
       id="path4512"
       style="fill:#ff7f0e;fill-opacity:1;stroke:none;stroke-width:0.1;stroke-miterlimit:4;stroke-dasharray:none;stroke-opacity:1" />
    <path
       transform="rotate(90)"
       style="fill:#2ca02c;fill-opacity:1;stroke:none;stroke-width:0.1;stroke-miterlimit:4;stroke-dasharray:none;stroke-opacity:1"
       id="path4514"
       d="m 127.00048,-180.00001 a 20,20 0 0 1 -18.82542,20.10373 20,20 0 0 1 -21.051981,-17.75868 20,20 0 0 1 16.644251,-21.94369 20,20 0 0 1 22.77647,15.48512" />
    <use
       height="100%"
       width="100%"
       transform="translate(-0.13822904,49.999998)"
       id="use4516"
       xlink:href="#path4506"
       y="0"
       x="0" />
    <use
       height="100%"
       width="100%"
       transform="translate(0,50)"
       id="use4518"
       xlink:href="#use4516"
       y="0"
       x="0" />
    <use
       height="100%"
       width="100%"
       transform="translate(3.2704541e-7,49.999998)"
       id="use4520"
       xlink:href="#use4508"
       y="0"
       x="0" />
    <use
       height="100%"
       width="100%"
       transform="translate(3.2703789e-7,49.999998)"
       id="use4522"
       xlink:href="#path4512"
       y="0"
       x="0" />
    <use
       height="100%"
       width="100%"
       transform="translate(0,50)"
       id="use4524"
       xlink:href="#use4522"
       y="0"
       x="0" />
    <use
       height="100%"
       width="100%"
       transform="translate(0,50)"
       id="use4526"
       xlink:href="#use4524"
       y="0"
       x="0" />
    <use
       height="100%"
       width="100%"
       transform="translate(-1.4931751e-5,49.999517)"
       id="use4528"
       xlink:href="#path4514"
       y="0"
       x="0" />
    <use
       height="100%"
       width="100%"
       transform="translate(0,50)"
       id="use4530"
       xlink:href="#use4528"
       y="0"
       x="0" />
  </g>
</svg>
