<?xml version="1.0" encoding="UTF-8" standalone="no"?>
<svg
   xmlns:dc="http://purl.org/dc/elements/1.1/"
   xmlns:cc="http://creativecommons.org/ns#"
   xmlns:rdf="http://www.w3.org/1999/02/22-rdf-syntax-ns#"
   xmlns:svg="http://www.w3.org/2000/svg"
   xmlns="http://www.w3.org/2000/svg"
   xmlns:sodipodi="http://sodipodi.sourceforge.net/DTD/sodipodi-0.dtd"
   xmlns:inkscape="http://www.inkscape.org/namespaces/inkscape"
   id="svg8"
   version="1.1"
   viewBox="0 0 220 220"
   height="22cm"
   width="22cm"
   sodipodi:docname="type-annotations.svg"
   inkscape:version="0.92.4 5da689c313, 2019-01-14">
  <sodipodi:namedview
     pagecolor="#ffffff"
     bordercolor="#666666"
     borderopacity="1"
     objecttolerance="10"
     gridtolerance="10"
     guidetolerance="10"
     inkscape:pageopacity="0"
     inkscape:pageshadow="2"
     inkscape:window-width="3832"
     inkscape:window-height="2114"
     id="namedview84"
     showgrid="true"
     inkscape:zoom="1.6055609"
     inkscape:cx="263.98112"
     inkscape:cy="444.25705"
     inkscape:window-x="1"
     inkscape:window-y="1"
     inkscape:window-maximized="0"
     inkscape:current-layer="layer1">
    <inkscape:grid
       type="xygrid"
       id="grid2539" />
  </sodipodi:namedview>
  <defs
     id="defs2" />
  <metadata
     id="metadata5">
    <rdf:RDF>
      <cc:Work
         rdf:about="">
        <dc:format>image/svg+xml</dc:format>
        <dc:type
           rdf:resource="http://purl.org/dc/dcmitype/StillImage" />
        <dc:title />
      </cc:Work>
    </rdf:RDF>
  </metadata>
  <g
     transform="matrix(0.88244858,0,0,0.88244858,1.1592652,-66.772972)"
     id="layer1">
    <path
       d="M 29.98642,132.32835 A 19.830944,19.830944 0 0 1 10.052616,113.66206 19.830944,19.830944 0 0 1 27.661184,92.788018 19.830944,19.830944 0 0 1 49.419388,109.29158 19.830944,19.830944 0 0 1 34.06516,131.87553"
       id="path4506"
       style="opacity:1;vector-effect:none;fill:#999999;fill-opacity:1;stroke:none;stroke-width:0.09915473;stroke-linecap:butt;stroke-linejoin:miter;stroke-miterlimit:4;stroke-dasharray:none;stroke-dashoffset:0;stroke-opacity:1"
       inkscape:connector-curvature="0" />
    <path
       style="opacity:1;vector-effect:none;fill:#1f77b4;fill-opacity:1;stroke:none;stroke-width:0.09915473;stroke-linecap:butt;stroke-linejoin:miter;stroke-miterlimit:4;stroke-dasharray:none;stroke-dashoffset:0;stroke-opacity:1"
       id="use4508"
       d="M 75.314843,132.32835 A 19.830944,19.830944 0 0 1 55.381038,113.66206 19.830944,19.830944 0 0 1 72.989606,92.788018 19.830944,19.830944 0 0 1 94.74781,109.29158 19.830944,19.830944 0 0 1 79.393582,131.87553"
       inkscape:connector-curvature="0" />
    <path
       d="m 120.64326,132.32834 a 19.830944,19.830944 0 0 1 -19.9338,-18.66629 19.830944,19.830944 0 0 1 17.60857,-20.874032 19.830944,19.830944 0 0 1 21.7582,16.503552 19.830944,19.830944 0 0 1 -15.35423,22.58395"
       id="path4512"
       style="opacity:1;vector-effect:none;fill:#aec7e8;fill-opacity:1;stroke:none;stroke-width:0.09915473;stroke-linecap:butt;stroke-linejoin:miter;stroke-miterlimit:4;stroke-dasharray:none;stroke-dashoffset:0;stroke-opacity:1"
       inkscape:connector-curvature="0" />
    <path
       style="opacity:1;vector-effect:none;fill:#ff7f0e;fill-opacity:1;stroke:none;stroke-width:0.09915473;stroke-linecap:butt;stroke-linejoin:miter;stroke-miterlimit:4;stroke-dasharray:none;stroke-dashoffset:0;stroke-opacity:1"
       id="path4514"
       d="m 211.30009,132.32834 a 19.830944,19.830944 0 0 1 -19.9338,-18.66629 19.830944,19.830944 0 0 1 17.60857,-20.874032 19.830944,19.830944 0 0 1 21.7582,16.503562 19.830944,19.830944 0 0 1 -15.35423,22.58394"
       inkscape:connector-curvature="0" />
    <path
       inkscape:connector-curvature="0"
       d="m 165.97167,132.32834 a 19.830944,19.830944 0 0 1 -19.9338,-18.66629 19.830944,19.830944 0 0 1 17.60857,-20.874032 19.830944,19.830944 0 0 1 21.7582,16.503562 19.830944,19.830944 0 0 1 -15.35423,22.58394"
       id="path2541"
       style="opacity:1;vector-effect:none;fill:#999999;fill-opacity:1;stroke:none;stroke-width:0.09915473;stroke-linecap:butt;stroke-linejoin:miter;stroke-miterlimit:4;stroke-dasharray:none;stroke-dashoffset:0;stroke-opacity:1" />
    <path
       inkscape:connector-curvature="0"
       style="fill:#1f77b4;fill-opacity:1;stroke:none;stroke-width:0.09915473;stroke-miterlimit:4;stroke-dasharray:none;stroke-opacity:1"
       id="path2572"
       d="M 29.98642,177.65678 A 19.830944,19.830944 0 0 1 10.052616,158.99049 19.830944,19.830944 0 0 1 27.661184,138.11645 19.830944,19.830944 0 0 1 49.419388,154.62001 19.830944,19.830944 0 0 1 34.06516,177.20396" />
    <path
       inkscape:connector-curvature="0"
       d="M 75.314843,177.65678 A 19.830944,19.830944 0 0 1 55.381038,158.99049 19.830944,19.830944 0 0 1 72.989606,138.11645 19.830944,19.830944 0 0 1 94.74781,154.62001 19.830944,19.830944 0 0 1 79.393582,177.20396"
       id="path2574"
       style="opacity:1;vector-effect:none;fill:#999999;fill-opacity:1;stroke:none;stroke-width:0.09915473;stroke-linecap:butt;stroke-linejoin:miter;stroke-miterlimit:4;stroke-dasharray:none;stroke-dashoffset:0;stroke-opacity:1" />
    <path
       inkscape:connector-curvature="0"
       style="opacity:1;vector-effect:none;fill:#aec7e8;fill-opacity:1;stroke:none;stroke-width:0.09915473;stroke-linecap:butt;stroke-linejoin:miter;stroke-miterlimit:4;stroke-dasharray:none;stroke-dashoffset:0;stroke-opacity:1"
       id="path2576"
       d="m 120.64326,177.65677 a 19.830944,19.830944 0 0 1 -19.9338,-18.66629 19.830944,19.830944 0 0 1 17.60857,-20.87403 19.830944,19.830944 0 0 1 21.7582,16.50355 19.830944,19.830944 0 0 1 -15.35423,22.58395" />
    <path
       inkscape:connector-curvature="0"
       d="m 211.30009,177.65677 a 19.830944,19.830944 0 0 1 -19.9338,-18.66629 19.830944,19.830944 0 0 1 17.60857,-20.87403 19.830944,19.830944 0 0 1 21.7582,16.50356 19.830944,19.830944 0 0 1 -15.35423,22.58394"
       id="path2578"
       style="opacity:1;vector-effect:none;fill:#999999;fill-opacity:1;stroke:none;stroke-width:0.09915473;stroke-linecap:butt;stroke-linejoin:miter;stroke-miterlimit:4;stroke-dasharray:none;stroke-dashoffset:0;stroke-opacity:1" />
    <path
       style="fill:#2ca02c;fill-opacity:1;stroke:none;stroke-width:0.09915473;stroke-miterlimit:4;stroke-dasharray:none;stroke-opacity:1"
       id="path2580"
       d="m 165.97167,177.65677 a 19.830944,19.830944 0 0 1 -19.9338,-18.66629 19.830944,19.830944 0 0 1 17.60857,-20.87403 19.830944,19.830944 0 0 1 21.7582,16.50356 19.830944,19.830944 0 0 1 -15.35423,22.58394"
       inkscape:connector-curvature="0" />
    <path
       inkscape:connector-curvature="0"
       style="opacity:1;vector-effect:none;fill:#999999;fill-opacity:1;stroke:none;stroke-width:0.09915473;stroke-linecap:butt;stroke-linejoin:miter;stroke-miterlimit:4;stroke-dasharray:none;stroke-dashoffset:0;stroke-opacity:1"
       id="path2582"
       d="M 29.98642,222.9852 A 19.830944,19.830944 0 0 1 10.052616,204.31891 19.830944,19.830944 0 0 1 27.661184,183.44487 19.830944,19.830944 0 0 1 49.419388,199.94843 19.830944,19.830944 0 0 1 34.06516,222.53238" />
    <path
       inkscape:connector-curvature="0"
       d="M 75.314843,222.9852 A 19.830944,19.830944 0 0 1 55.381038,204.31891 19.830944,19.830944 0 0 1 72.989606,183.44487 19.830944,19.830944 0 0 1 94.74781,199.94843 19.830944,19.830944 0 0 1 79.393582,222.53238"
       id="path2584"
       style="opacity:1;vector-effect:none;fill:#2ca02c;fill-opacity:1;stroke:none;stroke-width:0.09915473;stroke-linecap:butt;stroke-linejoin:miter;stroke-miterlimit:4;stroke-dasharray:none;stroke-dashoffset:0;stroke-opacity:1" />
    <path
       inkscape:connector-curvature="0"
       style="opacity:1;vector-effect:none;fill:#999999;fill-opacity:1;stroke:none;stroke-width:0.09915473;stroke-linecap:butt;stroke-linejoin:miter;stroke-miterlimit:4;stroke-dasharray:none;stroke-dashoffset:0;stroke-opacity:1"
       id="path2586"
       d="m 120.64326,222.98519 a 19.830944,19.830944 0 0 1 -19.9338,-18.66629 19.830944,19.830944 0 0 1 17.60857,-20.87403 19.830944,19.830944 0 0 1 21.7582,16.50355 19.830944,19.830944 0 0 1 -15.35423,22.58395" />
    <path
       inkscape:connector-curvature="0"
       d="m 211.30009,222.98519 a 19.830944,19.830944 0 0 1 -19.9338,-18.66629 19.830944,19.830944 0 0 1 17.60857,-20.87403 19.830944,19.830944 0 0 1 21.7582,16.50356 19.830944,19.830944 0 0 1 -15.35423,22.58394"
       id="path2588"
       style="opacity:1;vector-effect:none;fill:#ff7f0e;fill-opacity:1;stroke:none;stroke-width:0.09915473;stroke-linecap:butt;stroke-linejoin:miter;stroke-miterlimit:4;stroke-dasharray:none;stroke-dashoffset:0;stroke-opacity:1" />
    <path
       style="opacity:1;vector-effect:none;fill:#ff7f0e;fill-opacity:1;stroke:none;stroke-width:0.09915473;stroke-linecap:butt;stroke-linejoin:miter;stroke-miterlimit:4;stroke-dasharray:none;stroke-dashoffset:0;stroke-opacity:1"
       id="path2590"
       d="m 165.97167,222.98519 a 19.830944,19.830944 0 0 1 -19.9338,-18.66629 19.830944,19.830944 0 0 1 17.60857,-20.87403 19.830944,19.830944 0 0 1 21.7582,16.50356 19.830944,19.830944 0 0 1 -15.35423,22.58394"
       inkscape:connector-curvature="0" />
    <path
       d="M 29.98642,268.31363 A 19.830944,19.830944 0 0 1 10.052616,249.64734 19.830944,19.830944 0 0 1 27.661184,228.7733 19.830944,19.830944 0 0 1 49.419388,245.27686 19.830944,19.830944 0 0 1 34.06516,267.86081"
       id="path2592"
       style="opacity:1;vector-effect:none;fill:#999999;fill-opacity:1;stroke:none;stroke-width:0.09915473;stroke-linecap:butt;stroke-linejoin:miter;stroke-miterlimit:4;stroke-dasharray:none;stroke-dashoffset:0;stroke-opacity:1"
       inkscape:connector-curvature="0" />
    <path
       style="opacity:1;vector-effect:none;fill:#ff7f0e;fill-opacity:1;stroke:none;stroke-width:0.09915473;stroke-linecap:butt;stroke-linejoin:miter;stroke-miterlimit:4;stroke-dasharray:none;stroke-dashoffset:0;stroke-opacity:1"
       id="path2594"
       d="M 75.314843,268.31363 A 19.830944,19.830944 0 0 1 55.381038,249.64734 19.830944,19.830944 0 0 1 72.989606,228.7733 19.830944,19.830944 0 0 1 94.74781,245.27686 19.830944,19.830944 0 0 1 79.393582,267.86081"
       inkscape:connector-curvature="0" />
    <path
       d="m 120.64326,268.31362 a 19.830944,19.830944 0 0 1 -19.9338,-18.66629 19.830944,19.830944 0 0 1 17.60857,-20.87403 19.830944,19.830944 0 0 1 21.7582,16.50355 19.830944,19.830944 0 0 1 -15.35423,22.58395"
       id="path2596"
       style="opacity:1;vector-effect:none;fill:#1f77b4;fill-opacity:1;stroke:none;stroke-width:0.09915473;stroke-linecap:butt;stroke-linejoin:miter;stroke-miterlimit:4;stroke-dasharray:none;stroke-dashoffset:0;stroke-opacity:1"
       inkscape:connector-curvature="0" />
    <path
       style="opacity:1;vector-effect:none;fill:#999999;fill-opacity:1;stroke:none;stroke-width:0.09915473;stroke-linecap:butt;stroke-linejoin:miter;stroke-miterlimit:4;stroke-dasharray:none;stroke-dashoffset:0;stroke-opacity:1"
       id="path2598"
       d="m 211.30009,268.31362 a 19.830944,19.830944 0 0 1 -19.9338,-18.66629 19.830944,19.830944 0 0 1 17.60857,-20.87403 19.830944,19.830944 0 0 1 21.7582,16.50356 19.830944,19.830944 0 0 1 -15.35423,22.58394"
       inkscape:connector-curvature="0" />
    <path
       inkscape:connector-curvature="0"
       d="m 165.97167,268.31362 a 19.830944,19.830944 0 0 1 -19.9338,-18.66629 19.830944,19.830944 0 0 1 17.60857,-20.87403 19.830944,19.830944 0 0 1 21.7582,16.50356 19.830944,19.830944 0 0 1 -15.35423,22.58394"
       id="path2600"
       style="opacity:1;vector-effect:none;fill:#1f77b4;fill-opacity:1;stroke:none;stroke-width:0.09915473;stroke-linecap:butt;stroke-linejoin:miter;stroke-miterlimit:4;stroke-dasharray:none;stroke-dashoffset:0;stroke-opacity:1" />
    <path
       d="M 29.98642,313.64205 A 19.830944,19.830944 0 0 1 10.052616,294.97576 19.830944,19.830944 0 0 1 27.661184,274.10172 19.830944,19.830944 0 0 1 49.419388,290.60528 19.830944,19.830944 0 0 1 34.06516,313.18923"
       id="path2602"
       style="opacity:1;vector-effect:none;fill:#999999;fill-opacity:1;stroke:none;stroke-width:0.09915473;stroke-linecap:butt;stroke-linejoin:miter;stroke-miterlimit:4;stroke-dasharray:none;stroke-dashoffset:0;stroke-opacity:1"
       inkscape:connector-curvature="0" />
    <path
       style="opacity:1;vector-effect:none;fill:#1f77b4;fill-opacity:1;stroke:none;stroke-width:0.09915473;stroke-linecap:butt;stroke-linejoin:miter;stroke-miterlimit:4;stroke-dasharray:none;stroke-dashoffset:0;stroke-opacity:1"
       id="path2604"
       d="M 75.314843,313.64205 A 19.830944,19.830944 0 0 1 55.381038,294.97576 19.830944,19.830944 0 0 1 72.989606,274.10172 19.830944,19.830944 0 0 1 94.74781,290.60528 19.830944,19.830944 0 0 1 79.393582,313.18923"
       inkscape:connector-curvature="0" />
    <path
       d="m 120.64326,313.64204 a 19.830944,19.830944 0 0 1 -19.9338,-18.66629 19.830944,19.830944 0 0 1 17.60857,-20.87403 19.830944,19.830944 0 0 1 21.7582,16.50355 19.830944,19.830944 0 0 1 -15.35423,22.58395"
       id="path2606"
       style="opacity:1;vector-effect:none;fill:#1f77b4;fill-opacity:1;stroke:none;stroke-width:0.09915473;stroke-linecap:butt;stroke-linejoin:miter;stroke-miterlimit:4;stroke-dasharray:none;stroke-dashoffset:0;stroke-opacity:1"
       inkscape:connector-curvature="0" />
    <path
       style="opacity:1;vector-effect:none;fill:#aec7e8;fill-opacity:1;stroke:none;stroke-width:0.09915473;stroke-linecap:butt;stroke-linejoin:miter;stroke-miterlimit:4;stroke-dasharray:none;stroke-dashoffset:0;stroke-opacity:1"
       id="path2608"
       d="m 211.30009,313.64204 a 19.830944,19.830944 0 0 1 -19.9338,-18.66629 19.830944,19.830944 0 0 1 17.60857,-20.87403 19.830944,19.830944 0 0 1 21.7582,16.50356 19.830944,19.830944 0 0 1 -15.35423,22.58394"
       inkscape:connector-curvature="0" />
    <path
       inkscape:connector-curvature="0"
       d="m 165.97167,313.64204 a 19.830944,19.830944 0 0 1 -19.9338,-18.66629 19.830944,19.830944 0 0 1 17.60857,-20.87403 19.830944,19.830944 0 0 1 21.7582,16.50356 19.830944,19.830944 0 0 1 -15.35423,22.58394"
       id="path2610"
       style="opacity:1;vector-effect:none;fill:#aec7e8;fill-opacity:1;stroke:none;stroke-width:0.09915473;stroke-linecap:butt;stroke-linejoin:miter;stroke-miterlimit:4;stroke-dasharray:none;stroke-dashoffset:0;stroke-opacity:1" />
  </g>
</svg>
