<?xml version="1.0" encoding="UTF-8" standalone="no"?>
<svg
   xmlns:dc="http://purl.org/dc/elements/1.1/"
   xmlns:cc="http://creativecommons.org/ns#"
   xmlns:rdf="http://www.w3.org/1999/02/22-rdf-syntax-ns#"
   xmlns:svg="http://www.w3.org/2000/svg"
   xmlns="http://www.w3.org/2000/svg"
   xmlns:xlink="http://www.w3.org/1999/xlink"
   xmlns:sodipodi="http://sodipodi.sourceforge.net/DTD/sodipodi-0.dtd"
   xmlns:inkscape="http://www.inkscape.org/namespaces/inkscape"
   id="svg8"
   version="1.1"
   viewBox="0 0 220 220"
   height="22cm"
   width="22cm"
   sodipodi:docname="type-hierarchy.svg"
   inkscape:version="0.92.4 5da689c313, 2019-01-14">
  <sodipodi:namedview
     pagecolor="#ffffff"
     bordercolor="#666666"
     borderopacity="1"
     objecttolerance="10"
     gridtolerance="10"
     guidetolerance="10"
     inkscape:pageopacity="0"
     inkscape:pageshadow="2"
     inkscape:window-width="2552"
     inkscape:window-height="1426"
     id="namedview84"
     showgrid="true"
     inkscape:zoom="1.135303"
     inkscape:cx="501.34107"
     inkscape:cy="447.57011"
     inkscape:window-x="3841"
     inkscape:window-y="1"
     inkscape:window-maximized="0"
     inkscape:current-layer="layer1"
     inkscape:pagecheckerboard="true"
     inkscape:snap-object-midpoints="false">
    <inkscape:grid
       type="xygrid"
       id="grid2539" />
  </sodipodi:namedview>
  <defs
     id="defs2" />
  <metadata
     id="metadata5">
    <rdf:RDF>
      <cc:Work
         rdf:about="">
        <dc:format>image/svg+xml</dc:format>
        <dc:type
           rdf:resource="http://purl.org/dc/dcmitype/StillImage" />
        <dc:title></dc:title>
      </cc:Work>
    </rdf:RDF>
  </metadata>
  <g
     transform="matrix(0.88244858,0,0,0.88244858,1.1592652,-66.772972)"
     id="layer1">
    <path
       style="color:#000000;font-style:normal;font-variant:normal;font-weight:normal;font-stretch:normal;font-size:medium;line-height:normal;font-family:sans-serif;font-variant-ligatures:normal;font-variant-position:normal;font-variant-caps:normal;font-variant-numeric:normal;font-variant-alternates:normal;font-feature-settings:normal;text-indent:0;text-align:start;text-decoration:none;text-decoration-line:none;text-decoration-style:solid;text-decoration-color:#000000;letter-spacing:normal;word-spacing:normal;text-transform:none;writing-mode:lr-tb;direction:ltr;text-orientation:mixed;dominant-baseline:auto;baseline-shift:baseline;text-anchor:start;white-space:normal;shape-padding:0;clip-rule:nonzero;display:inline;overflow:visible;visibility:visible;opacity:1;isolation:auto;mix-blend-mode:normal;color-interpolation:sRGB;color-interpolation-filters:linearRGB;solid-color:#000000;solid-opacity:1;vector-effect:none;fill:#000000;fill-opacity:1;fill-rule:nonzero;stroke:#ffffff;stroke-width:4.53284218;stroke-linecap:round;stroke-linejoin:miter;stroke-miterlimit:4;stroke-dasharray:none;stroke-dashoffset:0;stroke-opacity:1;paint-order:markers stroke fill;color-rendering:auto;image-rendering:auto;shape-rendering:auto;text-rendering:auto;enable-background:accumulate"
       d="m 100.67526,157.06437 a 1.3562462,1.3562462 0 0 0 -0.61471,0.15192 l -54.244072,27.12205 a 1.3562462,1.3562462 0 1 0 1.213058,2.4261 l 54.244074,-27.12202 a 1.3562462,1.3562462 0 0 0 -0.59835,-2.57805 z"
       id="path3625"
       inkscape:connector-curvature="0" />
    <use
       x="0"
       y="0"
       xlink:href="#path3625"
       id="use3629"
       transform="matrix(1,0,0,-1,0,394.97593)"
       width="100%"
       height="100%" />
    <use
       x="0"
       y="0"
       xlink:href="#path3625"
       id="use3635"
       transform="translate(90.656845,-45.328418)"
       width="100%"
       height="100%" />
    <use
       x="0"
       y="0"
       xlink:href="#use3629"
       id="use3637"
       transform="translate(90.656845,45.328421)"
       width="100%"
       height="100%" />
    <use
       x="0"
       y="0"
       xlink:href="#use3629"
       id="use3672"
       transform="translate(90.656845,-45.328422)"
       width="100%"
       height="100%" />
    <path
       style="opacity:1;vector-effect:none;fill:#ff7f0e;fill-opacity:1;stroke:none;stroke-width:0.12748571;stroke-linecap:butt;stroke-linejoin:miter;stroke-miterlimit:4;stroke-dasharray:none;stroke-dashoffset:0;stroke-opacity:1"
       id="path4514"
       d="m 211.33925,132.32836 a 25.49714,25.49714 0 0 1 -25.62938,-23.99971 25.49714,25.49714 0 0 1 22.63977,-26.838271 25.49714,25.49714 0 0 1 27.97507,21.219041 25.49714,25.49714 0 0 1 -19.74132,29.03674"
       inkscape:connector-curvature="0" />
    <path
       inkscape:connector-curvature="0"
       style="opacity:1;vector-effect:none;fill:#2ca02c;fill-opacity:1;stroke:none;stroke-width:0.12748568;stroke-linecap:butt;stroke-linejoin:miter;stroke-miterlimit:4;stroke-dasharray:none;stroke-dashoffset:0;stroke-opacity:1"
       id="path2576"
       d="m 120.68242,177.65678 a 25.497132,25.497132 0 0 1 -25.629376,-23.99971 25.497132,25.497132 0 0 1 22.639776,-26.83825 25.497132,25.497132 0 0 1 27.97505,21.21902 25.497132,25.497132 0 0 1 -19.74131,29.03674" />
    <path
       inkscape:connector-curvature="0"
       style="opacity:1;vector-effect:none;fill:#1f77b4;fill-opacity:1;stroke:none;stroke-width:0.12748563;stroke-linecap:butt;stroke-linejoin:miter;stroke-miterlimit:4;stroke-dasharray:none;stroke-dashoffset:0;stroke-opacity:1"
       id="path2582"
       d="M 30.025582,222.9852 A 25.497123,25.497123 0 0 1 4.3962092,198.9855 25.497123,25.497123 0 0 1 27.03597,172.14725 25.497123,25.497123 0 0 1 55.011017,193.36627 25.497123,25.497123 0 0 1 35.269716,222.403" />
    <path
       inkscape:connector-curvature="0"
       d="m 211.33925,222.9852 a 25.497134,25.497134 0 0 1 -25.62938,-23.99971 25.497134,25.497134 0 0 1 22.63978,-26.83825 25.497134,25.497134 0 0 1 27.97505,21.21903 25.497134,25.497134 0 0 1 -19.74131,29.03673"
       id="path2588"
       style="opacity:1;vector-effect:none;fill:#ff7f0e;fill-opacity:1;stroke:none;stroke-width:0.12748569;stroke-linecap:butt;stroke-linejoin:miter;stroke-miterlimit:4;stroke-dasharray:none;stroke-dashoffset:0;stroke-opacity:1" />
    <path
       d="m 120.68242,268.31363 a 25.497125,25.497125 0 0 1 -25.629369,-23.99971 25.497125,25.497125 0 0 1 22.639769,-26.83824 25.497125,25.497125 0 0 1 27.97504,21.21901 25.497125,25.497125 0 0 1 -19.7413,29.03673"
       id="path2596"
       style="opacity:1;vector-effect:none;fill:#1f77b4;fill-opacity:1;stroke:none;stroke-width:0.12748565;stroke-linecap:butt;stroke-linejoin:miter;stroke-miterlimit:4;stroke-dasharray:none;stroke-dashoffset:0;stroke-opacity:1"
       inkscape:connector-curvature="0" />
    <path
       style="opacity:1;vector-effect:none;fill:#2ca02c;fill-opacity:1;stroke:none;stroke-width:0.12748565;stroke-linecap:butt;stroke-linejoin:miter;stroke-miterlimit:4;stroke-dasharray:none;stroke-dashoffset:0;stroke-opacity:1"
       id="path2608"
       d="m 211.33925,313.64205 a 25.497127,25.497127 0 0 1 -25.62937,-23.99971 25.497127,25.497127 0 0 1 22.63977,-26.83824 25.497127,25.497127 0 0 1 27.97504,21.21902 25.497127,25.497127 0 0 1 -19.7413,29.03673"
       inkscape:connector-curvature="0" />
  </g>
</svg>
