<?xml version="1.0" encoding="UTF-8" standalone="no"?>
<svg
   xmlns:dc="http://purl.org/dc/elements/1.1/"
   xmlns:cc="http://creativecommons.org/ns#"
   xmlns:rdf="http://www.w3.org/1999/02/22-rdf-syntax-ns#"
   xmlns:svg="http://www.w3.org/2000/svg"
   xmlns="http://www.w3.org/2000/svg"
   xmlns:sodipodi="http://sodipodi.sourceforge.net/DTD/sodipodi-0.dtd"
   xmlns:inkscape="http://www.inkscape.org/namespaces/inkscape"
   id="svg8"
   version="1.1"
   viewBox="0 0 220 220"
   height="22cm"
   width="22cm"
   sodipodi:docname="type-meanshift.svg"
   inkscape:version="0.92.4 5da689c313, 2019-01-14">
  <sodipodi:namedview
     pagecolor="#ffffff"
     bordercolor="#666666"
     borderopacity="1"
     objecttolerance="10"
     gridtolerance="10"
     guidetolerance="10"
     inkscape:pageopacity="0"
     inkscape:pageshadow="2"
     inkscape:window-width="2552"
     inkscape:window-height="1426"
     id="namedview84"
     showgrid="true"
     inkscape:zoom="1.135303"
     inkscape:cx="84.583288"
     inkscape:cy="434.18431"
     inkscape:window-x="3841"
     inkscape:window-y="1"
     inkscape:window-maximized="0"
     inkscape:current-layer="layer1">
    <inkscape:grid
       type="xygrid"
       id="grid2539" />
  </sodipodi:namedview>
  <defs
     id="defs2">
    <inkscape:path-effect
       effect="knot"
       id="path-effect4582"
       is_visible="true"
       interruption_width="3"
       prop_to_stroke_width="true"
       add_stroke_width="true"
       add_other_stroke_width="true"
       switcher_size="15"
       crossing_points_vector="" />
    <inkscape:path-effect
       effect="fill_between_strokes"
       id="path-effect4580"
       is_visible="true"
       linkedpath=""
       secondpath=""
       reversesecond="false" />
    <inkscape:path-effect
       effect="curvestitching"
       id="path-effect4578"
       is_visible="true"
       count="5"
       startpoint_edge_variation="0;1"
       startpoint_spacing_variation="0;1"
       endpoint_edge_variation="0;1"
       endpoint_spacing_variation="0;1"
       strokepath="M0,0 L1,0"
       prop_scale="1"
       scale_y_rel="false" />
    <inkscape:path-effect
       effect="fill_between_many"
       id="path-effect873"
       is_visible="true"
       linkedpaths=""
       allow_transforms="false" />
  </defs>
  <metadata
     id="metadata5">
    <rdf:RDF>
      <cc:Work
         rdf:about="">
        <dc:format>image/svg+xml</dc:format>
        <dc:type
           rdf:resource="http://purl.org/dc/dcmitype/StillImage" />
        <dc:title />
      </cc:Work>
    </rdf:RDF>
  </metadata>
  <g
     transform="matrix(0.88244858,0,0,0.88244858,1.1592652,-66.772972)"
     id="layer1">
    <path
       style="opacity:1;vector-effect:none;fill:#2ca02c;fill-opacity:1;stroke:none;stroke-width:0.33070469;stroke-linecap:butt;stroke-linejoin:miter;stroke-miterlimit:4;stroke-dasharray:none;stroke-dashoffset:0;stroke-opacity:1"
       d="m 707.87891,56.697266 c -2.15663,0.02766 -4.32925,0.159613 -6.51563,0.402343 -14.20908,1.577482 -35.93979,17.959473 -60.36133,16.789063 -36.45452,-1.747095 -73.11077,-18.755161 -90.82031,-16.789063 -34.98208,3.883686 -60.79476,34.484789 -58.72852,69.621091 0.95773,16.28604 18.03088,46.30622 17.22852,77.2168 -0.74605,28.74108 -18.25477,56.5115 -17.22852,73.96289 2.06625,35.13631 31.50271,66.14522 66.48438,62.25781 l 13.60352,-1.51172 c 10.18182,-1.13148 27.34939,-16.7755 46.3789,-11.10937 16.75689,4.98945 33.95541,21.9067 36.36719,38.77344 3.48613,24.38018 -12.5421,47.67454 -11.6543,62.77148 2.06625,35.13631 31.50215,66.13832 66.48438,62.25586 l 13.60351,-1.50977 c 34.98222,-3.88246 56.90162,-40.58835 51.21094,-75.32226 -2.15867,-13.17576 -18.34422,-31.1366 -16.24805,-51.77344 3.57752,-35.22081 19.7932,-77.76987 16.24805,-99.4082 -3.07956,-18.79652 -34.23502,-40.42012 -29.5957,-64.86328 5.44453,-28.68558 34.15522,-58.48865 29.5957,-86.31836 C 768.59662,79.579517 740.2283,56.282341 707.87891,56.697266 Z"
       transform="matrix(0.29982862,0,0,0.29982862,-1.3136915,75.667833)"
       id="path2588"
       inkscape:connector-curvature="0"
       sodipodi:nodetypes="ssssssssssssssssssss" />
    <path
       style="fill:#1f77b4;fill-opacity:1;stroke:none;stroke-width:0.33070469;stroke-miterlimit:4;stroke-dasharray:none;stroke-opacity:1"
       d="m 254.33594,56.697266 c -2.15663,0.02766 -4.3312,0.159613 -6.51758,0.402343 -34.98211,3.883689 -60.79479,34.484756 -58.72852,69.621091 0.89689,15.25142 10.50322,25.14923 6.56288,49.29549 -2.47654,15.17615 -14.92724,38.27722 -32.44577,40.13811 -27.19771,2.88906 -53.50165,-9.3237 -66.568278,-7.87305 -34.982101,3.88369 -60.79478,34.48284 -58.728516,69.61914 1.134163,19.28628 23.76443,47.64191 23.111328,75.69531 -0.688571,29.57693 -24.204578,56.89589 -23.111328,75.48633 0.974728,16.57512 16.642575,43.18868 16.029297,70.125 -0.743877,32.67245 -17.012706,64.33402 -16.029297,81.05664 2.066251,35.13631 31.500192,66.1383 66.482424,62.25586 l 13.60351,-1.50976 c 34.98225,-3.88244 56.20814,-40.48179 51.21094,-75.32227 -3.6037,-25.12504 -22.80958,-37.78052 4.65039,-59.23047 10.20461,-7.97118 21.48315,-20.8988 37.59961,-22.57617 22.52865,-2.34474 36.17979,8.33795 57.7207,5.94726 34.98224,-3.88246 56.90165,-40.58832 51.21094,-75.32226 -2.34492,-14.31255 -10.93864,-33.57501 -7.97314,-55.70117 2.02776,-15.12952 14.32636,-24.55043 32.16259,-26.8125 26.19238,-3.32184 49.85125,9.53582 62.17774,8.16601 l 13.60352,-1.51172 c 34.98167,-3.88741 56.8997,-40.58832 51.20898,-75.32226 C 465.87764,228.59031 433.98208,204.39756 399,208.28125 c -9.86839,1.09558 -26.15761,9.66493 -46.12109,9.85156 -10.01469,0.0936 -32.78387,-22.39069 -34.54854,-32.7414 -5.25044,-30.79665 5.41683,-52.74966 2.0583,-73.24883 -5.33502,-32.563066 -33.70333,-55.860244 -66.05273,-55.445314 z"
       transform="matrix(0.29982862,0,0,0.29982862,-1.3136915,75.667833)"
       id="path2592"
       inkscape:connector-curvature="0"
       sodipodi:nodetypes="ssssssssssssssssssssssssssss" />
    <path
       style="opacity:1;vector-effect:none;fill:#ff7f0e;fill-opacity:1;stroke:none;stroke-width:0.33070469;stroke-linecap:butt;stroke-linejoin:miter;stroke-miterlimit:4;stroke-dasharray:none;stroke-dashoffset:0;stroke-opacity:1"
       d="m 406.44141,359.04492 c -2.75878,0.0368 -5.25503,0.17524 -7.44141,0.41797 -34.98208,3.88369 -60.79476,34.48284 -58.72852,69.61914 0.74563,12.6793 14.73333,31.91185 8.92383,50.88867 -5.34713,17.46649 -23.97183,34.20385 -42.35937,37.9961 -24.76966,5.1085 -47.08274,-8.64922 -59.01758,-7.32422 -34.9821,3.88368 -60.79478,34.48479 -58.72852,69.62109 0.49046,8.34015 9.63895,19.47918 4.38086,28.82422 -12.43124,22.09365 -29.33994,47.94321 -51.93359,58.26758 -17.19053,7.85537 -34.78617,-6.65391 -44.898438,-5.53125 -34.982101,3.88368 -60.79478,34.48283 -58.728516,69.61914 2.066251,35.1363 31.500192,66.14025 66.482424,62.25781 l 13.60351,-1.50976 c 13.65903,-1.51592 35.96619,-16.74823 60.42969,-15.27344 31.29225,1.88647 61.1246,18.56158 77.14844,16.7832 l 13.60351,-1.50976 c 34.98225,-3.88244 56.90165,-40.59028 51.21094,-75.32422 -2.09698,-12.79922 -19.81006,-36.83859 -13.90234,-62.51367 3.3449,-14.53703 28.6073,-19.43923 46.60742,-20.73047 21.95564,-1.57499 41.52279,10.24374 53.66211,8.89648 l 13.60352,-1.50976 c 34.98222,-3.88243 56.8997,-40.58833 51.20898,-75.32227 -2.57018,-15.68737 -39.52387,-47.9793 -20.29492,-64.56055 l 2.26953,-1.95703 c 9.25195,-7.97801 25.82159,-17.92038 44.45508,-18.99414 23.60768,-1.36039 45.71517,12.74077 59.93945,11.16211 l 13.60352,-1.50977 c 34.98222,-3.88246 56.89966,-40.58835 51.20898,-75.32226 -5.69068,-34.73391 -37.58628,-58.92665 -72.56836,-55.04297 -13.14181,1.45899 -31.71571,16.10595 -53.33008,15.30273 -33.30183,-1.23754 -68.99475,-16.00625 -90.41015,-15.7207 z"
       transform="matrix(0.29982862,0,0,0.29982862,-1.3136915,75.667833)"
       id="path2604"
       inkscape:connector-curvature="0"
       sodipodi:nodetypes="sssssssssssssssssssssssssssssss" />
    <path
       style="opacity:1;vector-effect:none;fill:#aec7e8;fill-opacity:1;stroke:none;stroke-width:0.33070469;stroke-linecap:butt;stroke-linejoin:miter;stroke-miterlimit:4;stroke-dasharray:none;stroke-dashoffset:0;stroke-opacity:1"
       d="m 707.87891,510.24023 c -2.15663,0.0277 -4.32925,0.15962 -6.51563,0.40235 -16.19607,1.79807 -42.66653,21.32061 -70.5918,19.79297 -30.62922,-1.67556 -61.31062,-21.93334 -80.58984,-19.79297 -34.98208,3.88368 -60.79476,34.48479 -58.72852,69.62109 1.19525,20.32506 17.87046,57.11223 20.64844,88.9375 0.86872,9.95228 -19.74146,10.56111 -30.44726,8.63086 -33.97609,-6.12585 -66.65444,-17.7841 -82.6543,-16.00781 -34.98208,3.88368 -60.79476,34.48283 -58.72852,69.61914 2.06625,35.1363 31.50215,66.14024 66.48438,62.25781 l 13.60352,-1.50976 c 12.97534,-1.44004 35.30658,-15.29768 60.17187,-13.85157 31.65379,1.84092 61.78357,17.09518 77.40625,15.36133 l 13.60352,-1.50976 c 19.1613,-2.12658 51.93525,-13.89691 78.5996,-12.55469 22.55433,1.13533 43.56426,15.77496 58.97657,14.06445 l 13.60351,-1.50976 c 34.98222,-3.88244 56.90162,-40.59031 51.21094,-75.32422 -3.41568,-20.84808 -28.16543,-57.95815 -24.44141,-88.45899 2.83448,-23.21523 28.46324,-38.17288 24.44141,-62.7207 -5.33502,-32.56304 -33.70334,-55.86223 -66.05273,-55.44727 z"
       transform="matrix(0.29982862,0,0,0.29982862,-1.3136915,75.667833)"
       id="path2610"
       inkscape:connector-curvature="0"
       sodipodi:nodetypes="sssssssssssssssssssss" />
  </g>
</svg>
